<svg width="65" height="64" viewBox="0 0 65 64" fill="none" xmlns="http://www.w3.org/2000/svg">
<path d="M60.5 12V40H4.5V12C4.50142 10.7604 4.88674 9.55169 5.603 8.53998C6.31926 7.52826 7.3313 6.76322 8.5 6.35002C9.1409 6.11666 9.81794 5.99818 10.5 6.00002H54.5C56.0913 6.00002 57.6174 6.63216 58.7426 7.75738C59.8679 8.8826 60.5 10.4087 60.5 12Z" fill="#CCD3EB"/>
<path d="M57.5 12V40H4.5V12C4.50142 10.7604 4.88674 9.55169 5.603 8.53998C6.31926 7.52826 7.3313 6.76322 8.5 6.35002C9.1409 6.11666 9.81794 5.99818 10.5 6.00002H51.5C53.0913 6.00002 54.6174 6.63216 55.7426 7.75738C56.8679 8.8826 57.5 10.4087 57.5 12Z" fill="#F5F7FF"/>
<path d="M60.5 40V44C60.5 45.5913 59.8679 47.1174 58.7426 48.2426C57.6174 49.3679 56.0913 50 54.5 50H10.5C8.9087 50 7.38258 49.3679 6.25736 48.2426C5.13214 47.1174 4.5 45.5913 4.5 44V40H60.5Z" fill="#96A1C3"/>
<path d="M42.79 61.95H22.21L26.33 49.95H38.67L42.79 61.95Z" fill="#647499"/>
<path d="M33.5 46H31.5C31.2348 46 30.9804 45.8946 30.7929 45.7071C30.6054 45.5196 30.5 45.2652 30.5 45C30.5 44.7348 30.6054 44.4804 30.7929 44.2929C30.9804 44.1054 31.2348 44 31.5 44H33.5C33.7652 44 34.0196 44.1054 34.2071 44.2929C34.3946 44.4804 34.5 44.7348 34.5 45C34.5 45.2652 34.3946 45.5196 34.2071 45.7071C34.0196 45.8946 33.7652 46 33.5 46Z" fill="url(#paint0_linear_1_228)"/>
<path d="M55.5 4V12H9.5V4C9.5 3.46957 9.71071 2.96086 10.0858 2.58579C10.4609 2.21071 10.9696 2 11.5 2H53.5C54.0304 2 54.5391 2.21071 54.9142 2.58579C55.2893 2.96086 55.5 3.46957 55.5 4Z" fill="#0074FF"/>
<path d="M55.5 12V33C55.5 33.5304 55.2893 34.0391 54.9142 34.4142C54.5391 34.7893 54.0304 35 53.5 35H11.5C10.9696 35 10.4609 34.7893 10.0858 34.4142C9.71071 34.0391 9.5 33.5304 9.5 33V12H55.5Z" fill="#F5F7FF"/>
<path d="M49.5 9C49.1044 9 48.7178 8.8827 48.3889 8.66294C48.06 8.44318 47.8036 8.13082 47.6522 7.76537C47.5009 7.39992 47.4613 6.99778 47.5384 6.60982C47.6156 6.22186 47.8061 5.86549 48.0858 5.58579C48.3655 5.30608 48.7219 5.1156 49.1098 5.03843C49.4978 4.96126 49.8999 5.00087 50.2654 5.15224C50.6308 5.30362 50.9432 5.55996 51.1629 5.88886C51.3827 6.21776 51.5 6.60444 51.5 7C51.5 7.53043 51.2893 8.03914 50.9142 8.41421C50.5391 8.78929 50.0304 9 49.5 9Z" fill="#D7E9F7"/>
<path d="M43.5 9C43.1044 9 42.7178 8.8827 42.3889 8.66294C42.06 8.44318 41.8036 8.13082 41.6522 7.76537C41.5009 7.39992 41.4613 6.99778 41.5384 6.60982C41.6156 6.22186 41.8061 5.86549 42.0858 5.58579C42.3655 5.30608 42.7219 5.1156 43.1098 5.03843C43.4978 4.96126 43.8999 5.00087 44.2654 5.15224C44.6308 5.30362 44.9432 5.55996 45.1629 5.88886C45.3827 6.21776 45.5 6.60444 45.5 7C45.5 7.53043 45.2893 8.03914 44.9142 8.41421C44.5391 8.78929 44.0304 9 43.5 9Z" fill="#4795EA"/>
<path d="M37.5 9C37.1044 9 36.7178 8.8827 36.3889 8.66294C36.06 8.44318 35.8036 8.13082 35.6522 7.76537C35.5009 7.39992 35.4613 6.99778 35.5384 6.60982C35.6156 6.22186 35.8061 5.86549 36.0858 5.58579C36.3655 5.30608 36.7219 5.1156 37.1098 5.03843C37.4978 4.96126 37.8999 5.00087 38.2654 5.15224C38.6308 5.30362 38.9432 5.55996 39.1629 5.88886C39.3827 6.21776 39.5 6.60444 39.5 7C39.5 7.53043 39.2893 8.03914 38.9142 8.41421C38.5391 8.78929 38.0304 9 37.5 9Z" fill="#EB7F58"/>
<path d="M31.5 8H14.5C14.2348 8 13.9804 7.89464 13.7929 7.70711C13.6054 7.51957 13.5 7.26522 13.5 7C13.5 6.73478 13.6054 6.48043 13.7929 6.29289C13.9804 6.10536 14.2348 6 14.5 6H31.5C31.7652 6 32.0196 6.10536 32.2071 6.29289C32.3946 6.48043 32.5 6.73478 32.5 7C32.5 7.26522 32.3946 7.51957 32.2071 7.70711C32.0196 7.89464 31.7652 8 31.5 8Z" fill="#4795EA"/>
<path d="M15.5 28.0001C15.3353 27.9992 15.1734 27.9577 15.0286 27.8792C14.8838 27.8007 14.7606 27.6877 14.67 27.5501L12.67 24.5501C12.5625 24.3868 12.5052 24.1956 12.5052 24.0001C12.5052 23.8046 12.5625 23.6134 12.67 23.4501L14.67 20.4501C14.8263 20.2561 15.0494 20.1273 15.2957 20.0892C15.5419 20.051 15.7935 20.1062 16.0012 20.2438C16.2089 20.3814 16.3577 20.5916 16.4185 20.8333C16.4794 21.0749 16.4478 21.3305 16.33 21.5501L14.7 24.0001L16.33 26.4501C16.4748 26.6706 16.5265 26.9393 16.4741 27.1977C16.4217 27.4562 16.2692 27.6835 16.05 27.8301C15.889 27.9429 15.6966 28.0023 15.5 28.0001Z" fill="#B4CDE1"/>
<path d="M23.5 27.9999C23.3034 28.0022 23.1111 27.9427 22.95 27.8299C22.7308 27.6833 22.5784 27.456 22.5259 27.1975C22.4735 26.9391 22.5253 26.6704 22.67 26.4499L24.3 23.9999L22.67 21.5499C22.5827 21.4416 22.519 21.3162 22.483 21.1818C22.4469 21.0474 22.4393 20.907 22.4606 20.7695C22.4819 20.632 22.5317 20.5004 22.6067 20.3833C22.6818 20.2661 22.7804 20.1659 22.8964 20.089C23.0124 20.0122 23.1431 19.9603 23.2803 19.9369C23.4175 19.9135 23.558 19.9189 23.6929 19.9529C23.8278 19.9868 23.9542 20.0486 24.0639 20.1342C24.1736 20.2198 24.2642 20.3273 24.33 20.4499L26.33 23.4499C26.4375 23.6132 26.4949 23.8044 26.4949 23.9999C26.4949 24.1954 26.4375 24.3866 26.33 24.5499L24.33 27.5499C24.2394 27.6875 24.1163 27.8005 23.9715 27.879C23.8267 27.9575 23.6647 27.9991 23.5 27.9999Z" fill="#B4CDE1"/>
<path d="M18.5 28.8701C18.417 28.8799 18.3331 28.8799 18.25 28.8701C18.1165 28.8412 17.9904 28.7851 17.8794 28.7056C17.7684 28.626 17.6749 28.5245 17.6046 28.4074C17.5343 28.2902 17.4888 28.16 17.4708 28.0246C17.4528 27.8892 17.4628 27.7515 17.5 27.6201L19.5 19.8801C19.5663 19.6229 19.7321 19.4025 19.9609 19.2674C20.1897 19.1324 20.4628 19.0938 20.72 19.1601C20.9773 19.2264 21.1977 19.3922 21.3327 19.621C21.4677 19.8498 21.5063 20.1229 21.44 20.3801L19.44 28.1201C19.3859 28.3302 19.2649 28.5169 19.0953 28.6522C18.9258 28.7875 18.7168 28.864 18.5 28.8701Z" fill="#B4CDE1"/>
<path d="M40.5 31.0001H32.5C31.9704 30.9979 31.4634 30.7857 31.09 30.4101L34.77 26.7301C34.9789 26.5203 35.2318 26.3595 35.5104 26.2593C35.789 26.1592 36.0864 26.1221 36.3811 26.1508C36.6757 26.1795 36.9604 26.2732 37.2144 26.4253C37.4684 26.5774 37.6855 26.7839 37.85 27.0301L38.5 28.0001L40.5 31.0001Z" fill="#F5F7FF"/>
<path d="M51.5 19V29C51.5025 29.2541 51.4543 29.5062 51.3581 29.7414C51.2619 29.9767 51.1198 30.1904 50.94 30.37L45.04 23.74C44.8488 23.5303 44.6151 23.3636 44.3546 23.2512C44.094 23.1387 43.8125 23.083 43.5287 23.0877C43.2449 23.0925 42.9654 23.1575 42.7088 23.2786C42.4521 23.3997 42.2241 23.574 42.04 23.79L38.5 28L37.85 27C37.6855 26.7538 37.4684 26.5473 37.2144 26.3952C36.9603 26.2432 36.6757 26.1494 36.381 26.1207C36.0864 26.092 35.789 26.1291 35.5104 26.2292C35.2318 26.3294 34.9789 26.4902 34.77 26.7L31.09 30.38C30.7217 30.014 30.5101 29.5191 30.5 29V19C30.5 18.4696 30.7107 17.9609 31.0858 17.5858C31.4609 17.2107 31.9696 17 32.5 17H49.5C50.0304 17 50.5391 17.2107 50.9142 17.5858C51.2893 17.9609 51.5 18.4696 51.5 19Z" fill="#0074FF"/>
<path d="M50.94 30.3699C50.7576 30.5701 50.5351 30.7296 50.287 30.8382C50.0389 30.9467 49.7708 31.0018 49.5 30.9999H40.5L38.5 27.9999L42.01 23.7899C42.1941 23.574 42.4221 23.3996 42.6788 23.2786C42.9354 23.1575 43.2149 23.0924 43.4987 23.0877C43.7825 23.083 44.064 23.1387 44.3246 23.2511C44.5851 23.3636 44.8188 23.5302 45.01 23.7399L50.94 30.3699Z" fill="#F5F7FF"/>
<path d="M36.5 24C36.1044 24 35.7178 23.8827 35.3889 23.6629C35.06 23.4432 34.8036 23.1308 34.6522 22.7654C34.5009 22.3999 34.4613 21.9978 34.5384 21.6098C34.6156 21.2219 34.8061 20.8655 35.0858 20.5858C35.3655 20.3061 35.7219 20.1156 36.1098 20.0384C36.4978 19.9613 36.8999 20.0009 37.2654 20.1522C37.6308 20.3036 37.9432 20.56 38.1629 20.8889C38.3827 21.2178 38.5 21.6044 38.5 22C38.5 22.5304 38.2893 23.0391 37.9142 23.4142C37.5391 23.7893 37.0304 24 36.5 24Z" fill="#F0F7FC"/>
<path d="M33.5 44H31.5C31.2348 44 30.9804 44.1054 30.7929 44.2929C30.6054 44.4804 30.5 44.7348 30.5 45C30.5 45.2652 30.6054 45.5196 30.7929 45.7071C30.9804 45.8946 31.2348 46 31.5 46H33.5C33.7652 46 34.0196 45.8946 34.2071 45.7071C34.3946 45.5196 34.5 45.2652 34.5 45C34.5 44.7348 34.3946 44.4804 34.2071 44.2929C34.0196 44.1054 33.7652 44 33.5 44Z" fill="#033C59"/>
<path d="M56.5 5.3V4C56.5 3.20435 56.1839 2.44129 55.6213 1.87868C55.0587 1.31607 54.2957 1 53.5 1H49.5C49.2348 1 48.9804 1.10536 48.7929 1.29289C48.6054 1.48043 48.5 1.73478 48.5 2C48.5 2.26522 48.6054 2.51957 48.7929 2.70711C48.9804 2.89464 49.2348 3 49.5 3H53.5C53.7652 3 54.0196 3.10536 54.2071 3.29289C54.3946 3.48043 54.5 3.73478 54.5 4V11H10.5V4C10.5 3.73478 10.6054 3.48043 10.7929 3.29289C10.9804 3.10536 11.2348 3 11.5 3H40.5C40.7652 3 41.0196 2.89464 41.2071 2.70711C41.3946 2.51957 41.5 2.26522 41.5 2C41.5 1.73478 41.3946 1.48043 41.2071 1.29289C41.0196 1.10536 40.7652 1 40.5 1H11.5C10.7044 1 9.94129 1.31607 9.37868 1.87868C8.81607 2.44129 8.5 3.20435 8.5 4V5.3C7.05672 5.7303 5.79071 6.61461 4.88996 7.82161C3.98921 9.02862 3.50177 10.4939 3.5 12V44C3.5 45.8565 4.2375 47.637 5.55025 48.9497C6.86301 50.2625 8.64348 51 10.5 51H24.93L21.5 61H20.5C20.2348 61 19.9804 61.1054 19.7929 61.2929C19.6054 61.4804 19.5 61.7348 19.5 62C19.5 62.2652 19.6054 62.5196 19.7929 62.7071C19.9804 62.8946 20.2348 63 20.5 63H44.5C44.7652 63 45.0196 62.8946 45.2071 62.7071C45.3946 62.5196 45.5 62.2652 45.5 62C45.5 61.7348 45.3946 61.4804 45.2071 61.2929C45.0196 61.1054 44.7652 61 44.5 61H43.5L40.07 51H54.5C56.3565 51 58.137 50.2625 59.4497 48.9497C60.7625 47.637 61.5 45.8565 61.5 44V12C61.4982 10.4939 61.0108 9.02862 60.11 7.82161C59.2093 6.61461 57.9433 5.7303 56.5 5.3ZM54.5 13V33C54.5 33.2652 54.3946 33.5196 54.2071 33.7071C54.0196 33.8946 53.7652 34 53.5 34H11.5C11.2348 34 10.9804 33.8946 10.7929 33.7071C10.6054 33.5196 10.5 33.2652 10.5 33V13H54.5ZM8.5 7.44V33C8.5 33.7957 8.81607 34.5587 9.37868 35.1213C9.94129 35.6839 10.7044 36 11.5 36H53.5C54.2957 36 55.0587 35.6839 55.6213 35.1213C56.1839 34.5587 56.5 33.7957 56.5 33V7.44C57.3928 7.82123 58.1534 8.45704 58.687 9.26803C59.2205 10.079 59.5033 11.0292 59.5 12V39H5.5V12C5.49669 11.0292 5.77946 10.079 6.31301 9.26803C6.84656 8.45704 7.60722 7.82123 8.5 7.44ZM41.39 61H23.61L27.04 51H37.96L41.39 61ZM54.5 49H10.5C9.17392 49 7.90215 48.4732 6.96447 47.5355C6.02678 46.5979 5.5 45.3261 5.5 44V41H59.5V44C59.5 45.3261 58.9732 46.5979 58.0355 47.5355C57.0979 48.4732 55.8261 49 54.5 49Z" fill="#033C59"/>
<path d="M44.5 3H45.5C45.7652 3 46.0196 2.89464 46.2071 2.70711C46.3946 2.51957 46.5 2.26522 46.5 2C46.5 1.73478 46.3946 1.48043 46.2071 1.29289C46.0196 1.10536 45.7652 1 45.5 1H44.5C44.2348 1 43.9804 1.10536 43.7929 1.29289C43.6054 1.48043 43.5 1.73478 43.5 2C43.5 2.26522 43.6054 2.51957 43.7929 2.70711C43.9804 2.89464 44.2348 3 44.5 3Z" fill="#033C59"/>
<path d="M49.5 9C50.6046 9 51.5 8.10457 51.5 7C51.5 5.89543 50.6046 5 49.5 5C48.3954 5 47.5 5.89543 47.5 7C47.5 8.10457 48.3954 9 49.5 9Z" fill="#F5F7FF"/>
<path d="M43.5 9C44.6046 9 45.5 8.10457 45.5 7C45.5 5.89543 44.6046 5 43.5 5C42.3954 5 41.5 5.89543 41.5 7C41.5 8.10457 42.3954 9 43.5 9Z" fill="#F5F7FF"/>
<path d="M37.5 9C38.6046 9 39.5 8.10457 39.5 7C39.5 5.89543 38.6046 5 37.5 5C36.3954 5 35.5 5.89543 35.5 7C35.5 8.10457 36.3954 9 37.5 9Z" fill="#F5F7FF"/>
<path d="M14.5 6C14.2348 6 13.9804 6.10536 13.7929 6.29289C13.6054 6.48043 13.5 6.73478 13.5 7C13.5 7.26522 13.6054 7.51957 13.7929 7.70711C13.9804 7.89464 14.2348 8 14.5 8H31.5C31.7652 8 32.0196 7.89464 32.2071 7.70711C32.3946 7.51957 32.5 7.26522 32.5 7C32.5 6.73478 32.3946 6.48043 32.2071 6.29289C32.0196 6.10536 31.7652 6 31.5 6H14.5Z" fill="#F5F7FF"/>
<path d="M14.67 27.5501C14.7606 27.6877 14.8838 27.8007 15.0286 27.8792C15.1734 27.9577 15.3353 27.9992 15.5 28.0001C15.6966 28.0023 15.889 27.9429 16.05 27.8301C16.2692 27.6835 16.4217 27.4562 16.4741 27.1977C16.5265 26.9393 16.4748 26.6706 16.33 26.4501L14.7 24.0001L16.33 21.5501C16.4478 21.3305 16.4794 21.0749 16.4185 20.8333C16.3577 20.5916 16.2089 20.3814 16.0012 20.2438C15.7935 20.1062 15.5419 20.051 15.2957 20.0892C15.0494 20.1273 14.8263 20.2561 14.67 20.4501L12.67 23.4501C12.5625 23.6134 12.5052 23.8046 12.5052 24.0001C12.5052 24.1956 12.5625 24.3868 12.67 24.5501L14.67 27.5501Z" fill="#647499"/>
<path d="M22.95 27.8299C23.1111 27.9427 23.3034 28.0022 23.5 27.9999C23.6647 27.9991 23.8267 27.9575 23.9715 27.879C24.1163 27.8005 24.2394 27.6875 24.33 27.5499L26.33 24.5499C26.4375 24.3866 26.4949 24.1954 26.4949 23.9999C26.4949 23.8044 26.4375 23.6132 26.33 23.4499L24.33 20.4499C24.2642 20.3273 24.1736 20.2198 24.0639 20.1342C23.9542 20.0486 23.8278 19.9868 23.6929 19.9529C23.558 19.9189 23.4175 19.9135 23.2803 19.9369C23.1431 19.9603 23.0124 20.0122 22.8964 20.089C22.7804 20.1659 22.6818 20.2661 22.6067 20.3833C22.5317 20.5004 22.4819 20.632 22.4606 20.7695C22.4393 20.907 22.4469 21.0474 22.483 21.1818C22.519 21.3162 22.5827 21.4416 22.67 21.5499L24.3 23.9999L22.67 26.4499C22.5253 26.6704 22.4735 26.9391 22.5259 27.1975C22.5784 27.456 22.7308 27.6833 22.95 27.8299Z" fill="#647499"/>
<path d="M18.25 28.8401C18.3331 28.8499 18.417 28.8499 18.5 28.8401C18.7271 28.8473 18.9499 28.7769 19.1316 28.6406C19.3134 28.5043 19.4433 28.3101 19.5 28.0901L21.5 20.3501C21.5663 20.0928 21.5277 19.8198 21.3927 19.591C21.2577 19.3622 21.0373 19.1964 20.78 19.1301C20.5228 19.0638 20.2497 19.1024 20.0209 19.2374C19.7921 19.3724 19.6263 19.5928 19.56 19.8501L17.56 27.5901C17.5219 27.7175 17.5096 27.8511 17.5238 27.9833C17.5379 28.1155 17.5783 28.2436 17.6426 28.3599C17.7068 28.4763 17.7937 28.5788 17.8979 28.6612C18.0022 28.7436 18.1219 28.8045 18.25 28.8401Z" fill="#647499"/>
<path d="M32.5 32H49.5C50.2956 32 51.0587 31.6839 51.6213 31.1213C52.1839 30.5587 52.5 29.7956 52.5 29V19C52.5 18.2044 52.1839 17.4413 51.6213 16.8787C51.0587 16.3161 50.2956 16 49.5 16H32.5C31.7044 16 30.9413 16.3161 30.3787 16.8787C29.8161 17.4413 29.5 18.2044 29.5 19V29C29.5 29.7956 29.8161 30.5587 30.3787 31.1213C30.9413 31.6839 31.7044 32 32.5 32ZM41.03 30L39.75 28.07L42.75 24.43C42.8429 24.3184 42.9591 24.2284 43.0903 24.1662C43.2216 24.1041 43.3648 24.0712 43.51 24.07C43.6536 24.0585 43.7977 24.0836 43.9289 24.1431C44.0601 24.2026 44.174 24.2944 44.26 24.41L49.26 30H41.03ZM38.63 30H32.91L35.5 27.44C35.604 27.3326 35.7308 27.25 35.8709 27.198C36.0111 27.1461 36.1611 27.1263 36.31 27.14C36.4574 27.1562 36.5994 27.2049 36.7257 27.2828C36.8519 27.3606 36.9593 27.4656 37.04 27.59L38.63 30ZM32.5 18H49.5C49.7652 18 50.0196 18.1054 50.2071 18.2929C50.3946 18.4804 50.5 18.7348 50.5 19V28.37L45.79 23.08C45.5082 22.7649 45.1629 22.5129 44.7769 22.3406C44.3909 22.1682 43.9728 22.0794 43.55 22.08C43.1143 22.0837 42.6847 22.1822 42.291 22.3687C41.8972 22.5552 41.5488 22.8252 41.27 23.16L38.6 26.36C38.3452 26.0104 38.0178 25.7201 37.6403 25.5089C37.2627 25.2977 36.844 25.1706 36.4128 25.1364C35.9815 25.1022 35.548 25.1617 35.1419 25.3107C34.7358 25.4598 34.3667 25.6949 34.06 26L31.5 28.59V19C31.5 18.7348 31.6054 18.4804 31.7929 18.2929C31.9804 18.1054 32.2348 18 32.5 18Z" fill="#033C59"/>
<path d="M36.5 24C37.6046 24 38.5 23.1046 38.5 22C38.5 20.8954 37.6046 20 36.5 20C35.3954 20 34.5 20.8954 34.5 22C34.5 23.1046 35.3954 24 36.5 24Z" fill="#F5F7FF"/>
<defs>
<linearGradient id="paint0_linear_1_228" x1="30.5" y1="44.96" x2="34.5" y2="44.96" gradientUnits="userSpaceOnUse">
<stop stop-color="#D3E6F5"/>
<stop offset="1" stop-color="#F0F7FC"/>
</linearGradient>
</defs>
</svg>
