<svg width="65" height="64" viewBox="0 0 65 64" fill="none" xmlns="http://www.w3.org/2000/svg">
<g clip-path="url(#clip0_1_306)">
<path d="M26.1855 51.4189H38.8145V58.4019H26.1855V51.4189Z" fill="#2C6A9B"/>
<path d="M26.186 51.4189H38.814V53.5923H26.186V51.4189Z" fill="#1A5A84"/>
<path d="M44.7769 60.123H20.2231C19.5801 60.123 19.0586 59.6016 19.0586 58.9585C19.0586 58.3154 19.5801 57.7944 20.2231 57.7944H44.7769C45.4199 57.7944 45.9409 58.3154 45.9409 58.9585C45.9409 59.6016 45.4199 60.123 44.7769 60.123Z" fill="#DCEEEF"/>
<path d="M64.5 9.00244V50.4766C64.5 51.2026 63.9116 51.79 63.1851 51.79H1.81494C1.08838 51.79 0.5 51.2026 0.5 50.4766V9.00244C0.5 7.91455 1.3833 7.03223 2.47168 7.03223H62.5283C63.6177 7.03223 64.5 7.91455 64.5 9.00244Z" fill="#DCEEEF"/>
<path d="M55.9766 11.4956C55.8208 14.0532 55.1289 20.8086 52.1079 28.2812C48.2949 37.707 42.2441 44.8901 34.1235 49.6304C33.6318 49.9175 33.0703 50.0693 32.5 50.0693C31.9292 50.0693 31.3682 49.9175 30.876 49.6304C29.9448 49.0884 29.0332 48.5063 28.168 47.9033C21.0918 42.9922 15.8081 36.0205 12.4639 27.1841C9.79492 20.1313 9.16894 13.8652 9.02344 11.498C8.94629 10.2388 9.61719 9.04492 10.7324 8.45654L13.4302 7.03223H51.5688L54.2681 8.45654C55.3828 9.04492 56.0537 10.2373 55.9766 11.4956Z" fill="#BCDDE2"/>
<path d="M64.5 9.00244V50.4761C64.5 51.2031 63.9116 51.79 63.186 51.79H60.3267C61.0522 51.79 61.6406 51.2031 61.6406 50.4761V9.00244C61.6406 7.91504 60.7583 7.03271 59.6694 7.03271H62.5288C63.6177 7.03271 64.5 7.91504 64.5 9.00244Z" fill="#BCDDE2"/>
<path d="M64.5 45.4878V50.4766C64.5 51.2026 63.9116 51.79 63.1865 51.79H1.81348C1.08838 51.79 0.5 51.2026 0.5 50.4766V45.4878H64.5Z" fill="#3B7CA8"/>
<path d="M64.5 45.4878V50.4766C64.5 51.2026 63.9116 51.79 63.1865 51.79H60.3267C61.0527 51.79 61.6411 51.2026 61.6411 50.4766V45.4878H64.5Z" fill="#2C6A9B"/>
<path d="M64.5 9.00244V11.8149H0.5V9.00244C0.5 7.91455 1.3833 7.03223 2.47168 7.03223H62.5283C63.6177 7.03223 64.5 7.91455 64.5 9.00244Z" fill="#8BC1C6"/>
<path d="M55.9766 11.4956C55.9702 11.5962 55.9639 11.7017 55.9561 11.8149H9.04541C9.03613 11.7031 9.02978 11.5972 9.02344 11.498C8.94629 10.2388 9.61719 9.04492 10.7324 8.45654L13.4302 7.03223H51.5688L54.2681 8.45654C55.3828 9.04492 56.0537 10.2373 55.9766 11.4956Z" fill="#61989B"/>
<path d="M39.979 45.4878C38.1675 47.0293 36.2139 48.4106 34.124 49.6304C33.6318 49.9175 33.0703 50.0693 32.5 50.0693C31.9297 50.0693 31.3682 49.9175 30.876 49.6304C29.9453 49.0884 29.0332 48.5063 28.168 47.9033C27.0771 47.1465 26.0293 46.3413 25.0244 45.4878H39.979Z" fill="#2C6A9B"/>
<path d="M41.8657 3.875H23.1333C22.8613 3.875 22.5937 3.94141 22.353 4.06836L11.4536 9.82275C10.8726 10.1299 10.5254 10.7476 10.5659 11.4033C10.8584 16.1753 13.0264 35.5117 29.0513 46.6357C29.8809 47.2134 30.748 47.7676 31.6543 48.2959C32.1758 48.6006 32.8228 48.6011 33.3442 48.2964C51.7466 37.5547 54.1274 16.4175 54.4346 11.4019C54.4746 10.7461 54.1269 10.1294 53.5459 9.82324L50.0811 7.99414L42.646 4.06836C42.4053 3.94141 42.1377 3.875 41.8657 3.875Z" fill="#00E0FF"/>
<path d="M31.644 44.2051C31.4385 44.0684 31.2354 43.9302 31.0352 43.7905C24.8032 39.4644 20.1314 33.2798 17.1528 25.4097C15.334 20.604 14.5581 16.2246 14.2275 13.397C14.1538 12.7632 14.4766 12.1489 15.041 11.8511L23.2402 7.52197C23.4624 7.40479 23.71 7.34326 23.9614 7.34326H41.0376C41.2891 7.34326 41.5366 7.40479 41.7588 7.52197L49.9595 11.8516C50.5234 12.1494 50.8467 12.7637 50.773 13.3975C50.4136 16.4814 49.5464 21.2412 47.46 26.4014C44.3613 34.0615 39.6157 40.0518 33.3545 44.2061C32.8359 44.5498 32.1621 44.5493 31.644 44.2051Z" fill="#00B8D6"/>
<path d="M32.5 42.9185C32.3037 42.7881 32.1099 42.6558 31.9189 42.5225C25.9429 38.3745 21.4639 32.4346 18.5981 24.8628C16.8276 20.1851 16.0786 15.9219 15.7627 13.2173L23.9619 8.88867H41.0376L49.2378 13.2183C48.8994 16.1221 48.0679 20.7764 46.0273 25.8218C43.0449 33.1963 38.4995 38.938 32.5 42.9185Z" fill="#81E2FC"/>
<path d="M46.8105 23.7422C46.5713 24.4253 46.3105 25.1206 46.0269 25.8228C43.0449 33.1958 38.4995 38.9385 32.5 42.9189V23.7422H46.8105Z" fill="#DCEEEF"/>
<path d="M32.5 23.7422V42.9189C32.3042 42.7871 32.1104 42.6553 31.9185 42.5229C25.9438 38.375 21.4648 32.4355 18.5986 24.8633C18.4565 24.4854 18.3193 24.1128 18.1909 23.7417H32.5V23.7422Z" fill="#FFBF00"/>
<path d="M49.2388 13.2183C48.9463 15.7183 48.2896 19.5137 46.8105 23.7422H32.5V8.88818H41.0381L49.2388 13.2183Z" fill="#009AF2"/>
<path d="M7.89941 41.3706H7.2124C6.6792 41.3706 6.24707 40.9385 6.24707 40.4048C6.24707 39.8716 6.6792 39.439 7.2124 39.439H7.89941C8.43262 39.439 8.86523 39.8716 8.86523 40.4048C8.86523 40.9385 8.43262 41.3706 7.89941 41.3706Z" fill="#4C94C3"/>
<path d="M13.3936 38.7334H7.2124C6.6792 38.7334 6.24707 38.3013 6.24707 37.7681C6.24707 37.2344 6.6792 36.8022 7.2124 36.8022H13.3936C13.9272 36.8022 14.3594 37.2344 14.3594 37.7681C14.3594 38.3013 13.9268 38.7334 13.3936 38.7334Z" fill="#4C94C3"/>
<path d="M10.0454 36.0967H7.2124C6.6792 36.0967 6.24707 35.6641 6.24707 35.1309C6.24707 34.5977 6.6792 34.165 7.2124 34.165H10.0454C10.5791 34.165 11.0112 34.5977 11.0112 35.1309C11.0112 35.6641 10.5791 36.0967 10.0454 36.0967Z" fill="#4C94C3"/>
<path d="M13.3936 36.0967H12.6211C12.0874 36.0967 11.6553 35.6641 11.6553 35.1309C11.6553 34.5977 12.0874 34.165 12.6211 34.165H13.3936C13.9268 34.165 14.3594 34.5977 14.3594 35.1309C14.3594 35.6641 13.9268 36.0967 13.3936 36.0967Z" fill="#4C94C3"/>
<path d="M13.3955 41.3706H10.5625C10.0293 41.3706 9.59668 40.9385 9.59668 40.4048C9.59668 39.8716 10.0293 39.439 10.5625 39.439H13.3955C13.9287 39.439 14.3613 39.8716 14.3613 40.4048C14.3613 40.9385 13.9287 41.3706 13.3955 41.3706Z" fill="#4C94C3"/>
<path d="M52.291 41.3706H51.6045C51.0713 41.3706 50.6387 40.9385 50.6387 40.4048C50.6387 39.8716 51.0713 39.439 51.6045 39.439H52.291C52.8247 39.439 53.2568 39.8716 53.2568 40.4048C53.2568 40.9385 52.8247 41.3706 52.291 41.3706Z" fill="#4C94C3"/>
<path d="M57.7856 38.7334H51.6045C51.0713 38.7334 50.6387 38.3013 50.6387 37.7681C50.6387 37.2344 51.0713 36.8022 51.6045 36.8022H57.7856C58.3188 36.8022 58.7515 37.2344 58.7515 37.7681C58.7515 38.3013 58.3188 38.7334 57.7856 38.7334Z" fill="#4C94C3"/>
<path d="M54.4375 36.0967H51.6045C51.0713 36.0967 50.6387 35.6641 50.6387 35.1309C50.6387 34.5977 51.0713 34.165 51.6045 34.165H54.4375C54.9707 34.165 55.4033 34.5977 55.4033 35.1309C55.4033 35.6641 54.9707 36.0967 54.4375 36.0967Z" fill="#4C94C3"/>
<path d="M57.7856 36.0967H57.0132C56.4795 36.0967 56.0474 35.6641 56.0474 35.1309C56.0474 34.5977 56.4795 34.165 57.0132 34.165H57.7856C58.3188 34.165 58.7515 34.5977 58.7515 35.1309C58.7515 35.6641 58.3188 36.0967 57.7856 36.0967Z" fill="#4C94C3"/>
<path d="M57.7876 41.3706H54.9546C54.4209 41.3706 53.9888 40.9385 53.9888 40.4048C53.9888 39.8716 54.4209 39.439 54.9546 39.439H57.7876C58.3208 39.439 58.7529 39.8716 58.7529 40.4048C58.7534 40.9385 58.3208 41.3706 57.7876 41.3706Z" fill="#4C94C3"/>
<path d="M37.0176 23.7422C37.0176 26.2368 34.9951 28.2593 32.5 28.2593C30.0049 28.2593 27.9824 26.2368 27.9824 23.7422C27.9824 21.2471 30.0049 19.2246 32.5 19.2246C34.9951 19.2246 37.0176 21.2471 37.0176 23.7422Z" fill="#00B8D6"/>
<path d="M34.1587 23.7422C34.1587 24.6582 33.416 25.4004 32.5 25.4004C31.584 25.4004 30.8413 24.6582 30.8413 23.7422C30.8413 22.8262 31.584 22.0835 32.5 22.0835C33.416 22.0835 34.1587 22.8262 34.1587 23.7422Z" fill="#FFBF00"/>
</g>
<defs>
<clipPath id="clip0_1_306">
<rect width="64" height="64" fill="white" transform="translate(0.5)"/>
</clipPath>
</defs>
</svg>
