<svg width="65" height="64" viewBox="0 0 65 64" fill="none" xmlns="http://www.w3.org/2000/svg">
<path d="M10.1107 58.668L6.5 58.668C4.29086 58.668 2.5 56.8771 2.5 54.668V19.3588L3.60634 16.7778H46.7137L50.3452 22.9495L16.4058 56.3015L10.1107 58.668Z" fill="url(#paint0_linear_1_286)"/>
<path d="M62.5 54.668V16.7778H46.7137L10.1107 58.668L58.5 58.668C60.7091 58.668 62.5 56.8771 62.5 54.668Z" fill="url(#paint1_linear_1_286)"/>
<path d="M31.0963 19.3588L2.5 19.3588V9.33203C2.5 7.12289 4.29086 5.33203 6.5 5.33203H43.3527L45.3366 7.33648L35.4034 18.1002L31.0963 19.3588Z" fill="url(#paint2_linear_1_286)"/>
<path d="M58.5 5.33203H43.3527L31.0963 19.3588H62.5V9.33203C62.5 7.12289 60.7091 5.33203 58.5 5.33203Z" fill="url(#paint3_linear_1_286)"/>
<path d="M26.2596 14.6382C27.5259 14.6382 28.5524 13.6117 28.5524 12.3455C28.5524 11.0792 27.5259 10.0527 26.2596 10.0527C24.9934 10.0527 23.9669 11.0792 23.9669 12.3455C23.9669 13.6117 24.9934 14.6382 26.2596 14.6382Z" fill="url(#paint4_linear_1_286)"/>
<path d="M17.5574 14.6382C18.8236 14.6382 19.8501 13.6117 19.8501 12.3455C19.8501 11.0792 18.8236 10.0527 17.5574 10.0527C16.2911 10.0527 15.2646 11.0792 15.2646 12.3455C15.2646 13.6117 16.2911 14.6382 17.5574 14.6382Z" fill="url(#paint5_linear_1_286)"/>
<path d="M8.79025 14.6382C10.0565 14.6382 11.083 13.6117 11.083 12.3455C11.083 11.0792 10.0565 10.0527 8.79025 10.0527C7.524 10.0527 6.4975 11.0792 6.4975 12.3455C6.4975 13.6117 7.524 14.6382 8.79025 14.6382Z" fill="url(#paint6_linear_1_286)"/>
<path d="M56.6456 10.4885H47.1935C46.168 10.4885 45.3366 11.3199 45.3366 12.3454C45.3366 13.3709 46.168 14.2023 47.1935 14.2023H56.6456C57.6712 14.2023 58.5025 13.3709 58.5025 12.3454C58.5025 11.3199 57.6712 10.4885 56.6456 10.4885Z" fill="url(#paint7_linear_1_286)"/>
<path d="M30.6727 49.2725L16.7236 44.6216C15.9249 44.3553 15.9249 43.2254 16.7236 42.9591L32.5 37.699L48.2764 42.9591C49.0751 43.2254 49.0751 44.3553 48.2764 44.6216L34.3273 49.2725C33.1412 49.668 31.8588 49.668 30.6727 49.2725Z" fill="url(#paint8_linear_1_286)"/>
<path d="M30.6727 44.6519L16.7236 40.001C15.9249 39.7347 15.9249 38.6048 16.7236 38.3385L32.5 33.0784L48.2764 38.3385C49.0751 38.6048 49.0751 39.7347 48.2764 40.001L34.3273 44.6519C33.1412 45.0473 31.8588 45.0473 30.6727 44.6519Z" fill="url(#paint9_linear_1_286)"/>
<path d="M30.6727 40.031L16.7236 35.3801C15.9249 35.1138 15.9249 33.984 16.7236 33.7177L32.5 28.4575L48.2764 33.7177C49.0751 33.984 49.0751 35.1138 48.2764 35.3801L34.3273 40.031C33.1412 40.4265 31.8588 40.4265 30.6727 40.031Z" fill="url(#paint10_linear_1_286)"/>
<defs>
<linearGradient id="paint0_linear_1_286" x1="26.4226" y1="81.2007" x2="26.4226" y2="-10.9693" gradientUnits="userSpaceOnUse">
<stop stop-color="#EDBAF7"/>
<stop offset="0.99875" stop-color="#EEE6F5"/>
</linearGradient>
<linearGradient id="paint1_linear_1_286" x1="36.3054" y1="94.4761" x2="36.3054" y2="7.05223" gradientUnits="userSpaceOnUse">
<stop stop-color="#EDBAF7"/>
<stop offset="0.99875" stop-color="#EEE6F5"/>
</linearGradient>
<linearGradient id="paint2_linear_1_286" x1="23.9184" y1="57.9668" x2="23.9184" y2="-8.68234" gradientUnits="userSpaceOnUse">
<stop stop-color="#9C40F2"/>
<stop offset="0.99875" stop-color="#E9A5F0"/>
</linearGradient>
<linearGradient id="paint3_linear_1_286" x1="46.7981" y1="47.5403" x2="46.7981" y2="-11.737" gradientUnits="userSpaceOnUse">
<stop stop-color="#9C40F2"/>
<stop offset="0.99875" stop-color="#E9A5F0"/>
</linearGradient>
<linearGradient id="paint4_linear_1_286" x1="26.2596" y1="18.9509" x2="26.2596" y2="9.86611" gradientUnits="userSpaceOnUse">
<stop offset="0.00125" stop-color="#6B17F2"/>
<stop offset="1" stop-color="#8C47E6"/>
</linearGradient>
<linearGradient id="paint5_linear_1_286" x1="17.5574" y1="18.9509" x2="17.5574" y2="9.86611" gradientUnits="userSpaceOnUse">
<stop offset="0.00125" stop-color="#6B17F2"/>
<stop offset="1" stop-color="#8C47E6"/>
</linearGradient>
<linearGradient id="paint6_linear_1_286" x1="8.79025" y1="18.9509" x2="8.79025" y2="9.86611" gradientUnits="userSpaceOnUse">
<stop offset="0.00125" stop-color="#6B17F2"/>
<stop offset="1" stop-color="#8C47E6"/>
</linearGradient>
<linearGradient id="paint7_linear_1_286" x1="37.2637" y1="18.4355" x2="56.8501" y2="10.2965" gradientUnits="userSpaceOnUse">
<stop offset="0.00125" stop-color="#6B17F2"/>
<stop offset="1" stop-color="#8C47E6"/>
</linearGradient>
<linearGradient id="paint8_linear_1_286" x1="32.5" y1="59.7553" x2="32.5" y2="36.5661" gradientUnits="userSpaceOnUse">
<stop offset="0.00125" stop-color="#6B17F2"/>
<stop offset="1" stop-color="#8C47E6"/>
</linearGradient>
<linearGradient id="paint9_linear_1_286" x1="32.5" y1="52.2397" x2="32.5" y2="29.5939" gradientUnits="userSpaceOnUse">
<stop stop-color="#9C40F2"/>
<stop offset="0.99875" stop-color="#E9A5F0"/>
</linearGradient>
<linearGradient id="paint10_linear_1_286" x1="32.5" y1="49.4898" x2="32.5" y2="22.0842" gradientUnits="userSpaceOnUse">
<stop offset="0.00125" stop-color="#6B17F2"/>
<stop offset="1" stop-color="#8C47E6"/>
</linearGradient>
</defs>
</svg>
