<svg width="65" height="64" viewBox="0 0 65 64" fill="none" xmlns="http://www.w3.org/2000/svg">
<path d="M43.4504 3.02936L43.9347 7.02043H36.9816L37.4658 3.02936C37.513 2.64083 37.8228 2.33505 38.2122 2.29589C39.7095 2.14535 41.2068 2.14535 42.7041 2.29589C43.0935 2.33505 43.4033 2.64083 43.4504 3.02936Z" fill="#E5E8EF"/>
<path d="M37.4658 30.2815L36.9816 26.2904H43.9347L43.4504 30.2815C43.4033 30.67 43.0935 30.9758 42.7041 31.0149C41.2068 31.1655 39.7095 31.1655 38.2122 31.0149C37.8228 30.9758 37.513 30.67 37.4658 30.2815Z" fill="#E5E8EF"/>
<path d="M32.9388 4.90447L36.1034 7.38415L31.1868 12.3008L28.7071 9.13623C28.4657 8.82816 28.4686 8.39289 28.7162 8.08984C29.6685 6.92464 30.7273 5.86586 31.8925 4.91356C32.1955 4.66589 32.6308 4.66307 32.9388 4.90447Z" fill="#E5E8EF"/>
<path d="M47.9774 28.4064L44.8129 25.9268L49.7294 21.0101L52.2091 24.1747C52.4505 24.4827 52.4477 24.918 52.2 25.2211C51.2477 26.3863 50.189 27.445 49.0238 28.3973C48.7208 28.645 48.2855 28.6478 47.9774 28.4064Z" fill="#E5E8EF"/>
<path d="M26.8321 13.6632L30.8231 13.179L30.8232 20.1321L26.8321 19.6478C26.4436 19.6007 26.1378 19.2909 26.0987 18.9015C25.9481 17.4042 25.9481 15.9069 26.0986 14.4096C26.1377 14.0202 26.4435 13.7104 26.8321 13.6632Z" fill="#E5E8EF"/>
<path d="M54.0843 19.6477L50.0933 20.132L50.0931 13.1788L54.0842 13.6631C54.4727 13.7102 54.7785 14.02 54.8177 14.4094C54.9683 15.9067 54.9683 17.404 54.8178 18.9013C54.7786 19.2908 54.4728 19.6005 54.0843 19.6477Z" fill="#E5E8EF"/>
<path d="M28.7073 24.1747L31.1869 21.0101L36.1037 25.9267L32.9392 28.4064C32.6311 28.6478 32.1958 28.645 31.8928 28.3973C30.7275 27.445 29.6688 26.3863 28.7164 25.2211C28.4688 24.918 28.4659 24.4828 28.7073 24.1747Z" fill="#E5E8EF"/>
<path d="M52.2091 9.13603L49.7295 12.3006L44.8127 7.38405L47.9773 4.90435C48.2853 4.66295 48.7206 4.66577 49.0236 4.91343C50.1889 5.86571 51.2477 6.92447 52.2 8.08965C52.4477 8.39269 52.4505 8.82796 52.2091 9.13603Z" fill="#E5E8EF"/>
<path d="M40.4585 28.0857C46.7715 28.0857 51.8891 22.968 51.8891 16.6551C51.8891 10.3421 46.7715 5.22449 40.4585 5.22449C34.1456 5.22449 29.028 10.3421 29.028 16.6551C29.028 22.968 34.1456 28.0857 40.4585 28.0857Z" fill="#E5E8EF"/>
<path d="M40.4586 23.455C44.2141 23.455 47.2586 20.4105 47.2586 16.655C47.2586 12.8994 44.2141 9.85498 40.4586 9.85498C36.703 9.85498 33.6586 12.8994 33.6586 16.655C33.6586 20.4105 36.703 23.455 40.4586 23.455Z" fill="#ADB9CA"/>
<path d="M40.4585 21.7807C43.2894 21.7807 45.5842 19.4859 45.5842 16.6551C45.5842 13.8242 43.2894 11.5294 40.4585 11.5294C37.6277 11.5294 35.3329 13.8242 35.3329 16.6551C35.3329 19.4859 37.6277 21.7807 40.4585 21.7807Z" fill="white"/>
<path d="M18.4684 23.2162H60.1566C61.8288 23.2162 63.0125 24.8502 62.4914 26.4391L56.5049 44.6932C56.0595 46.0512 54.7921 46.9694 53.363 46.9694H25.1091L18.4684 23.2162Z" fill="#5CBEFF"/>
<path d="M62.497 26.4454L56.5024 44.6976C56.0639 46.0499 54.7967 46.9637 53.3587 46.9637H25.1032L60.1577 23.2161C61.8271 23.2161 63.009 24.8492 62.497 26.4454Z" fill="#079CFF"/>
<path d="M52.6723 53.994C52.6723 54.8404 51.9862 55.5265 51.1398 55.5265H29.9203C27.4038 55.5265 25.1772 53.8326 24.5053 51.4074L16.2411 21.5733C16.058 20.912 15.4507 20.4501 14.7642 20.4501H7.11339C6.26704 20.4501 5.58093 19.764 5.58093 18.9176C5.58093 18.0712 6.26704 17.3851 7.11339 17.3851H14.7642C16.8235 17.3851 18.6453 18.7709 19.1948 20.7552L27.1478 49.4659C27.6381 51.236 29.2492 52.4616 31.0861 52.4616H51.1398C51.9862 52.4616 52.6723 53.1477 52.6723 53.994Z" fill="#33527D"/>
<path d="M37.3658 57.143C37.3658 59.7226 35.2716 61.817 32.6843 61.817C30.1045 61.817 28.0103 59.7226 28.0103 57.143C28.0103 54.5555 30.1045 52.4615 32.6843 52.4615C35.2716 52.4615 37.3658 54.5555 37.3658 57.143Z" fill="#435E88"/>
<path d="M35.2508 29.9295V40.256C35.2508 41.2077 34.4793 41.9792 33.5276 41.9792C32.5758 41.9792 31.8042 41.2076 31.8042 40.2558V29.9297C31.8042 28.9779 32.5758 28.2063 33.5276 28.2063C34.4793 28.2063 35.2508 28.9778 35.2508 29.9295Z" fill="white"/>
<path d="M42.3439 29.9295V40.2558C42.3439 41.2076 41.5723 41.9792 40.6205 41.9792C39.6688 41.9792 38.8973 41.2077 38.8973 40.256V29.9297C38.8973 28.9779 39.6689 28.2063 40.6207 28.2063C41.5724 28.2063 42.3439 28.9778 42.3439 29.9295Z" fill="white"/>
<path d="M49.4369 29.9297V40.2558C49.4369 41.2076 48.6653 41.9792 47.7135 41.9792C46.7618 41.9792 45.9903 41.2077 45.9903 40.256V29.9295C45.9903 28.9778 46.7618 28.2063 47.7135 28.2063C48.6653 28.2063 49.4369 28.9779 49.4369 29.9297Z" fill="white"/>
<path d="M14.1308 17.6933V20.107C14.1308 20.8774 13.5005 21.5077 12.7301 21.5077H3.78325C3.01274 21.5077 2.38232 20.8773 2.38232 20.1068V17.7026C2.38232 16.9289 3.00954 16.3016 3.78325 16.3016H12.7391C13.5077 16.3016 14.1308 16.9247 14.1308 17.6933Z" fill="#FFD80C"/>
<path d="M34.7101 57.1409C34.7101 58.256 33.8049 59.1614 32.6865 59.1614C31.5712 59.1614 30.666 58.256 30.666 57.1409C30.666 56.0224 31.5712 55.1172 32.6865 55.1172C33.8049 55.1172 34.7101 56.0224 34.7101 57.1409Z" fill="white"/>
<path d="M56.0323 57.143C56.0323 59.7226 53.9382 61.817 51.3509 61.817C48.771 61.817 46.6769 59.7226 46.6769 57.143C46.6769 54.5555 48.771 52.4615 51.3509 52.4615C53.9382 52.4615 56.0323 54.5555 56.0323 57.143Z" fill="#435E88"/>
<path d="M53.3767 57.1409C53.3767 58.256 52.4714 59.1614 51.353 59.1614C50.2377 59.1614 49.3325 58.256 49.3325 57.1409C49.3325 56.0224 50.2377 55.1172 51.353 55.1172C52.4714 55.1172 53.3767 56.0224 53.3767 57.1409Z" fill="white"/>
</svg>
