<svg width="65" height="64" viewBox="0 0 65 64" fill="none" xmlns="http://www.w3.org/2000/svg">
<g clip-path="url(#clip0_1_264)">
<path d="M60.3008 0H4.6617C2.90164 0 1.47482 1.46039 1.47482 3.26186V60.7381C1.47482 62.5396 2.90164 64 4.6617 64H60.3008C62.0609 64 63.4877 62.5396 63.4877 60.7381V3.26186C63.4877 1.46039 62.0609 0 60.3008 0Z" fill="#E6F7FE"/>
<path fill-rule="evenodd" clip-rule="evenodd" d="M1.47482 3.26186V14.0598H63.4877V3.26186C63.4877 1.46221 62.063 0 60.3008 0H4.69919C2.93704 0 1.47482 1.46221 1.47482 3.26186Z" fill="#615DF9"/>
<path d="M48.5656 4.53662H48.5281C44.159 4.53662 40.6172 5.6445 40.6172 7.01114C40.6172 8.37778 44.159 9.48565 48.5281 9.48565H48.5656C52.9347 9.48565 56.4766 8.37778 56.4766 7.01114C56.4766 5.6445 52.9347 4.53662 48.5656 4.53662Z" fill="#A8A8FF"/>
<path fill-rule="evenodd" clip-rule="evenodd" d="M38.6676 14.0598L30.7566 0H4.69919C2.93704 0 1.47482 1.46221 1.47482 3.26186V14.0598H38.6676Z" fill="#3342AE"/>
<path d="M11.2979 4.53662H7.88607C7.49264 4.53662 7.17371 4.85556 7.17371 5.24898V8.77329C7.17371 9.16672 7.49264 9.48565 7.88607 9.48565H11.2979C11.6913 9.48565 12.0103 9.16672 12.0103 8.77329V5.24898C12.0103 4.85556 11.6913 4.53662 11.2979 4.53662Z" fill="#F948B4"/>
<path d="M19.7713 4.53662H16.3594C15.966 4.53662 15.6471 4.85556 15.6471 5.24898V8.77329C15.6471 9.16672 15.966 9.48565 16.3594 9.48565H19.7713C20.1647 9.48565 20.4836 9.16672 20.4836 8.77329V5.24898C20.4836 4.85556 20.1647 4.53662 19.7713 4.53662Z" fill="#FECD0A"/>
<path d="M28.2821 4.53662H24.8703C24.4768 4.53662 24.1579 4.85556 24.1579 5.24898V8.77329C24.1579 9.16672 24.4768 9.48565 24.8703 9.48565H28.2821C28.6755 9.48565 28.9945 9.16672 28.9945 8.77329V5.24898C28.9945 4.85556 28.6755 4.53662 28.2821 4.53662Z" fill="#39DF74"/>
<path fill-rule="evenodd" clip-rule="evenodd" d="M1.47482 14.0598H63.4945V16.0465H1.47482V14.0598Z" fill="#CFDEFE"/>
<path fill-rule="evenodd" clip-rule="evenodd" d="M48.6781 54.0644C48.6781 54.4019 48.4157 54.7018 48.0782 54.7018C47.7033 54.7018 47.4408 54.4019 47.4408 54.0644V47.2783H17.5592V54.0644C17.5592 54.4019 17.2592 54.7018 16.9218 54.7018C16.5844 54.7018 16.2844 54.4019 16.2844 54.0644V46.6784C16.2844 46.341 16.5844 46.041 16.9218 46.041H48.0782C48.4157 46.041 48.6781 46.341 48.6781 46.6784V54.0644Z" fill="#FEA708"/>
<path fill-rule="evenodd" clip-rule="evenodd" d="M31.8814 39.6673C31.8814 39.3298 32.1438 39.0674 32.4813 39.0674C32.8562 39.0674 33.1186 39.3298 33.1186 39.6673V55.3767C33.1186 55.7141 32.8562 55.9766 32.4813 55.9766C32.1438 55.9766 31.8814 55.7141 31.8814 55.3767V39.6673Z" fill="#FECD0A"/>
<path d="M19.3213 52.8271H14.5598C13.9593 52.8271 13.4725 53.3139 13.4725 53.9144V58.676C13.4725 59.2765 13.9593 59.7633 14.5598 59.7633H19.3213C19.9218 59.7633 20.4086 59.2765 20.4086 58.676V53.9144C20.4086 53.3139 19.9218 52.8271 19.3213 52.8271Z" fill="#F948B4"/>
<path d="M34.8808 52.8271H30.1192C29.5187 52.8271 29.032 53.3139 29.032 53.9144V58.676C29.032 59.2765 29.5187 59.7633 30.1192 59.7633H34.8808C35.4813 59.7633 35.9681 59.2765 35.9681 58.676V53.9144C35.9681 53.3139 35.4813 52.8271 34.8808 52.8271Z" fill="#73C3F9"/>
<path d="M50.4403 52.8271H45.6787C45.0782 52.8271 44.5914 53.3139 44.5914 53.9144V58.676C44.5914 59.2765 45.0782 59.7633 45.6787 59.7633H50.4403C51.0408 59.7633 51.5275 59.2765 51.5275 58.676V53.9144C51.5275 53.3139 51.0408 52.8271 50.4403 52.8271Z" fill="#39DF74"/>
<path fill-rule="evenodd" clip-rule="evenodd" d="M43.954 27.8572L41.442 27.3698C41.2545 26.8074 41.0296 26.245 40.7671 25.7201L42.1919 23.583C42.3793 23.3205 42.4543 22.9456 42.1919 22.6832L39.9048 20.3961C39.6424 20.1712 39.3049 20.2087 39.005 20.3961L36.8679 21.8583C36.343 21.5584 35.8181 21.3334 35.2182 21.1835L34.7308 18.634C34.6933 18.2965 34.4684 17.9966 34.1309 17.9966H30.8691C30.5316 17.9966 30.3067 18.2965 30.2317 18.634L29.7443 21.1835C29.1819 21.3334 28.6195 21.5584 28.0946 21.8583L25.9575 20.3961C25.6951 20.2087 25.3202 20.1712 25.0952 20.3961L22.7707 22.6832C22.5457 22.9456 22.5832 23.3205 22.7707 23.583L24.2329 25.7201C23.9704 26.245 23.708 26.8074 23.558 27.3698L21.0085 27.8572C20.6711 27.9321 20.3711 28.1571 20.3711 28.4945V31.7564C20.4086 32.0938 20.6711 32.3188 21.0085 32.3563L23.558 32.8437C23.708 33.4436 23.9704 33.9685 24.2329 34.4934V34.5309L22.7707 36.6304C22.5832 36.9304 22.5457 37.2678 22.7707 37.5303L25.0952 39.8173C25.3202 40.0798 25.6951 40.0423 25.9575 39.8173L28.0946 38.3926C28.6195 38.655 29.1819 38.88 29.7443 39.0675L30.2317 41.617C30.3067 41.9544 30.5316 42.2169 30.8691 42.2169H34.1309C34.4684 42.2169 34.6933 41.9544 34.7308 41.617L35.2182 39.0675C35.8181 38.88 36.343 38.655 36.8679 38.3926L39.005 39.8173C39.3049 40.0423 39.6424 40.0798 39.9048 39.8173L42.1919 37.5303C42.4543 37.2678 42.3793 36.9304 42.1919 36.6304L40.7671 34.5309C40.7671 34.4934 40.7671 34.4934 40.7671 34.4934C41.0296 33.9685 41.2545 33.4436 41.442 32.8437L43.954 32.3563C44.3289 32.3188 44.5914 32.0938 44.5914 31.7564V28.4945C44.5914 28.1571 44.2915 27.9321 43.954 27.8572Z" fill="#CCCCCC"/>
<path d="M32.4813 34.9808C35.1731 34.9808 37.3553 32.7986 37.3553 30.1067C37.3553 27.4149 35.1731 25.2327 32.4813 25.2327C29.7894 25.2327 27.6072 27.4149 27.6072 30.1067C27.6072 32.7986 29.7894 34.9808 32.4813 34.9808Z" fill="#E6F7FE"/>
</g>
<defs>
<clipPath id="clip0_1_264">
<rect width="64" height="64" fill="white" transform="translate(0.5)"/>
</clipPath>
</defs>
</svg>
