<svg width="65" height="64" viewBox="0 0 65 64" fill="none" xmlns="http://www.w3.org/2000/svg">
<path d="M62.5 36.5C62.5 36.725 62.495 36.95 62.475 37.17C62.19 41.525 59.1 45.175 54.915 46.205C54.625 48.23 53.615 50.05 52.13 51.36C51.365 52.04 50.48 52.585 49.5 52.955V53C49.5 56.02 47.26 58.525 44.355 58.94C43.87 59.985 43.145 60.875 42.25 61.56C41.225 62.34 39.985 62.845 38.66 62.965C38.445 62.99 38.225 63 38 63C35.77 63 33.785 61.945 32.5 60.315C29.28 56.685 26.89 53.055 25.175 49.48C23.94 46.93 23.055 44.41 22.45 41.94C17.305 20.97 32.5 3.685 32.5 3.685C33.785 2.055 35.77 1 38 1C40.025 1 41.845 1.845 43.115 3.21C43.805 3.94 44.33 4.815 44.65 5.79C45.41 5.6 46.195 5.5 47 5.5C52.24 5.5 56.5 9.76 56.5 15C56.5 15.395 56.475 15.79 56.43 16.175C59.77 17.535 62 20.78 62 24.5C62 26.51 61.325 28.45 60.11 30.015C61.645 31.81 62.5 34.105 62.5 36.5Z" fill="url(#paint0_linear_1_476)"/>
<path d="M62.475 37.1701C62.19 41.5251 59.1 45.1751 54.915 46.2051C54.625 48.2301 53.615 50.0501 52.13 51.3601C51.365 52.0401 50.48 52.5851 49.5 52.9551V53.0001C49.5 56.0201 47.26 58.5251 44.355 58.9401C43.87 59.9851 43.145 60.8751 42.25 61.5601C41.225 62.3401 39.985 62.8451 38.66 62.9651L25.175 49.4801L20.04 44.3501L22.45 41.9401L44.86 19.5551L62.475 37.1701Z" fill="url(#paint1_linear_1_476)"/>
<path d="M32.5 3.685V60.315C32.37 60.48 32.235 60.635 32.09 60.785C32.02 60.865 31.945 60.935 31.87 61.01C31.8 61.08 31.72 61.15 31.645 61.22C31.565 61.29 31.485 61.355 31.405 61.42C31.17 61.615 30.915 61.79 30.655 61.95C30.65 61.955 30.645 61.955 30.64 61.96C29.575 62.62 28.33 63 27 63C24.25 63 21.775 61.375 20.645 58.94C17.74 58.525 15.5 56.02 15.5 53V52.955C12.615 51.865 10.525 49.27 10.085 46.205C5.685 45.12 2.5 41.145 2.5 36.5C2.5 34.105 3.355 31.81 4.89 30.015C3.675 28.45 3 26.51 3 24.5C3 20.78 5.23 17.535 8.57 16.175C8.525 15.79 8.5 15.395 8.5 15C8.5 10.22 12.04 6.26 16.64 5.6C17.085 5.535 17.54 5.5 18 5.5C18.805 5.5 19.59 5.6 20.35 5.79C21.27 2.99 23.895 1 27 1C29.23 1 31.215 2.055 32.5 3.685Z" fill="url(#paint2_linear_1_476)"/>
<path d="M32.5 31.905V56.805L20.04 44.35L32.5 31.905Z" fill="url(#paint3_linear_1_476)"/>
<path d="M44.65 5.78996C43.14 6.52496 41.985 7.79996 41.4 9.36996C41.175 9.97496 40.6 10.35 39.99 10.35C39.82 10.35 39.64 10.32 39.47 10.255C38.695 9.96496 38.3 9.09996 38.585 8.32496C39.41 6.09996 41.02 4.29496 43.115 3.20996C43.805 3.93996 44.33 4.81496 44.65 5.78996Z" fill="url(#paint4_linear_1_476)"/>
<path d="M52.13 51.36C51.365 52.04 50.48 52.585 49.5 52.955C49.39 52.465 49.15 52.005 48.81 51.625C48.26 51.005 48.31 50.06 48.93 49.505C49.545 48.955 50.495 49.005 51.045 49.62C51.505 50.135 51.875 50.725 52.13 51.36Z" fill="#FCAA1A"/>
<path d="M44.355 58.9401C43.87 59.9851 43.145 60.8751 42.25 61.5601C41.82 61.4001 41.41 61.1901 41.02 60.9301C40.33 60.4701 40.15 59.5351 40.61 58.8451C41.07 58.1601 42 57.9751 42.69 58.4351C43.18 58.7651 43.76 58.9401 44.355 58.9401Z" fill="#FCAA1A"/>
<path d="M20.35 5.78996C21.86 6.52496 23.015 7.79996 23.6 9.36996C23.825 9.97496 24.4 10.35 25.01 10.35C25.18 10.35 25.36 10.32 25.53 10.255C26.305 9.96496 26.7 9.09996 26.415 8.32496C25.59 6.09996 23.98 4.29496 21.885 3.20996C21.195 3.93996 20.67 4.81496 20.35 5.78996Z" fill="url(#paint5_linear_1_476)"/>
<path d="M12.87 51.36C13.635 52.04 14.52 52.585 15.5 52.955C15.61 52.465 15.85 52.005 16.19 51.625C16.74 51.005 16.69 50.06 16.07 49.505C15.455 48.955 14.505 49.005 13.955 49.62C13.495 50.135 13.125 50.725 12.87 51.36Z" fill="#10A0F9"/>
<path d="M20.645 58.9401C21.13 59.9851 21.855 60.8751 22.75 61.5601C23.18 61.4001 23.59 61.1901 23.98 60.9301C24.67 60.4701 24.85 59.5351 24.39 58.8451C23.93 58.1601 23 57.9751 22.31 58.4351C21.82 58.7651 21.24 58.9401 20.645 58.9401Z" fill="#10A0F9"/>
<path d="M45.845 43.015C45.39 44.065 44.565 44.89 43.515 45.345C40.015 46.87 36.255 47.63 32.5 47.63C28.74 47.63 24.985 46.87 21.485 45.345C20.435 44.89 19.61 44.065 19.155 43.015C16.11 36.015 16.11 27.985 19.155 20.985C19.61 19.935 20.435 19.11 21.485 18.655C28.485 15.61 36.515 15.61 43.515 18.655C44.565 19.11 45.39 19.935 45.845 20.985C48.89 27.985 48.89 36.015 45.845 43.015Z" fill="url(#paint6_linear_1_476)"/>
<path d="M30.4095 25.9875C30.194 25.3945 29.631 25 29 25C28.369 25 27.806 25.3945 27.5905 25.9875L23.5905 36.9875C23.3075 37.766 23.709 38.6265 24.4875 38.91C25.2645 39.1925 26.1265 38.7915 26.41 38.013L26.778 37H31.222L31.5905 38.0125C31.812 38.622 32.3875 39.0005 33 39.0005C33.17 39.0005 33.3435 38.971 33.5125 38.9095C34.291 38.6265 34.6925 37.7655 34.4095 36.987L30.4095 25.9875ZM27.869 34L29 30.889L30.131 34H27.869Z" fill="white"/>
<path d="M39 25C38.1715 25 37.5 25.6715 37.5 26.5V37.5C37.5 38.3285 38.1715 39 39 39C39.8285 39 40.5 38.3285 40.5 37.5V26.5C40.5 25.6715 39.8285 25 39 25Z" fill="white"/>
<defs>
<linearGradient id="paint0_linear_1_476" x1="41.9435" y1="1" x2="41.9435" y2="63" gradientUnits="userSpaceOnUse">
<stop stop-color="#FEF156"/>
<stop offset="0.4469" stop-color="#FFC242"/>
<stop offset="1" stop-color="#FC753F"/>
</linearGradient>
<linearGradient id="paint1_linear_1_476" x1="69.889" y1="69.3916" x2="39.1935" y2="38.6961" gradientUnits="userSpaceOnUse">
<stop offset="0.6875" stop-color="#F99E0D" stop-opacity="0"/>
<stop offset="0.7327" stop-color="#F49020" stop-opacity="0.078"/>
<stop offset="0.8234" stop-color="#E86D50" stop-opacity="0.233"/>
<stop offset="0.8622" stop-color="#E25D66" stop-opacity="0.3"/>
</linearGradient>
<linearGradient id="paint2_linear_1_476" x1="17.5" y1="1" x2="17.5" y2="63" gradientUnits="userSpaceOnUse">
<stop stop-color="#A4EEFF"/>
<stop offset="0.7319" stop-color="#02C0FC"/>
<stop offset="1" stop-color="#27A6FF"/>
</linearGradient>
<linearGradient id="paint3_linear_1_476" x1="48.3075" y1="60.165" x2="25.0855" y2="36.943" gradientUnits="userSpaceOnUse">
<stop offset="0.2613" stop-color="#A4EEFF" stop-opacity="0"/>
<stop offset="0.2961" stop-color="#66CAFF" stop-opacity="0.508"/>
<stop offset="0.3297" stop-color="#27A6FF"/>
</linearGradient>
<linearGradient id="paint4_linear_1_476" x1="41.5715" y1="3.20996" x2="41.5715" y2="10.35" gradientUnits="userSpaceOnUse">
<stop stop-color="#FEF156"/>
<stop offset="0.4469" stop-color="#FFC242"/>
<stop offset="1" stop-color="#FC753F"/>
</linearGradient>
<linearGradient id="paint5_linear_1_476" x1="23.429" y1="3.20996" x2="23.429" y2="10.35" gradientUnits="userSpaceOnUse">
<stop stop-color="#A4EEFF"/>
<stop offset="0.7319" stop-color="#02C0FC"/>
<stop offset="1" stop-color="#27A6FF"/>
</linearGradient>
<linearGradient id="paint6_linear_1_476" x1="16.8715" y1="32.0005" x2="48.129" y2="32.0005" gradientUnits="userSpaceOnUse">
<stop offset="1.1188e-07" stop-color="#A47AF4"/>
<stop offset="0.4469" stop-color="#8954DD"/>
<stop offset="1" stop-color="#6936BA"/>
</linearGradient>
</defs>
</svg>
