<svg width="63" height="64" viewBox="0 0 63 64" fill="none" xmlns="http://www.w3.org/2000/svg">
<path d="M57.0938 50C58.7247 50 60.0469 48.6569 60.0469 47C60.0469 45.3431 58.7247 44 57.0938 44C55.4628 44 54.1406 45.3431 54.1406 47C54.1406 48.6569 55.4628 50 57.0938 50Z" fill="#FFD648"/>
<path d="M46.2656 61C47.8966 61 49.2188 59.6569 49.2188 58C49.2188 56.3431 47.8966 55 46.2656 55C44.6347 55 43.3125 56.3431 43.3125 58C43.3125 59.6569 44.6347 61 46.2656 61Z" fill="#FFD648"/>
<path d="M31.5 59C33.131 59 34.4531 57.6569 34.4531 56C34.4531 54.3431 33.131 53 31.5 53C29.869 53 28.5469 54.3431 28.5469 56C28.5469 57.6569 29.869 59 31.5 59Z" fill="#FFD648"/>
<path d="M16.7344 61C18.3653 61 19.6875 59.6569 19.6875 58C19.6875 56.3431 18.3653 55 16.7344 55C15.1034 55 13.7812 56.3431 13.7812 58C13.7812 59.6569 15.1034 61 16.7344 61Z" fill="#FFD648"/>
<path d="M5.90625 50C7.53722 50 8.85938 48.6569 8.85938 47C8.85938 45.3431 7.53722 44 5.90625 44C4.27528 44 2.95312 45.3431 2.95312 47C2.95312 48.6569 4.27528 50 5.90625 50Z" fill="#FFD648"/>
<path d="M44.2969 35V39C44.2969 39.5304 44.0895 40.0391 43.7202 40.4142C43.351 40.7893 42.8503 41 42.3281 41H20.6719C20.1497 41 19.649 40.7893 19.2798 40.4142C18.9105 40.0391 18.7031 39.5304 18.7031 39V35C18.7031 34.4696 18.9105 33.9609 19.2798 33.5858C19.649 33.2107 20.1497 33 20.6719 33H42.3281C42.8503 33 43.351 33.2107 43.7202 33.5858C44.0895 33.9609 44.2969 34.4696 44.2969 35Z" fill="#FFD648"/>
<path d="M42.3281 25H20.6719C19.5846 25 18.7031 25.8954 18.7031 27V31C18.7031 32.1046 19.5846 33 20.6719 33H42.3281C43.4154 33 44.2969 32.1046 44.2969 31V27C44.2969 25.8954 43.4154 25 42.3281 25Z" fill="#FFD648"/>
<path d="M42.3281 17H20.6719C19.5846 17 18.7031 17.8954 18.7031 19V23C18.7031 24.1046 19.5846 25 20.6719 25H42.3281C43.4154 25 44.2969 24.1046 44.2969 23V19C44.2969 17.8954 43.4154 17 42.3281 17Z" fill="#FFD648"/>
<path d="M27.5625 41H20.6719C20.1497 41 19.649 40.7893 19.2798 40.4142C18.9105 40.0391 18.7031 39.5304 18.7031 39V35C18.7031 34.4696 18.9105 33.9609 19.2798 33.5858C19.649 33.2107 20.1497 33 20.6719 33H27.5625C27.0404 33 26.5396 33.2107 26.1704 33.5858C25.8012 33.9609 25.5938 34.4696 25.5938 35V39C25.5938 39.5304 25.8012 40.0391 26.1704 40.4142C26.5396 40.7893 27.0404 41 27.5625 41Z" fill="#FFB300"/>
<path d="M27.5625 33H20.6719C20.1497 33 19.649 32.7893 19.2798 32.4142C18.9105 32.0391 18.7031 31.5304 18.7031 31V27C18.7031 26.4696 18.9105 25.9609 19.2798 25.5858C19.649 25.2107 20.1497 25 20.6719 25H27.5625C27.0404 25 26.5396 25.2107 26.1704 25.5858C25.8012 25.9609 25.5938 26.4696 25.5938 27V31C25.5938 31.5304 25.8012 32.0391 26.1704 32.4142C26.5396 32.7893 27.0404 33 27.5625 33Z" fill="#FFB300"/>
<path d="M27.5625 25H20.6719C20.1497 25 19.649 24.7893 19.2798 24.4142C18.9105 24.0391 18.7031 23.5304 18.7031 23V19C18.7031 18.4696 18.9105 17.9609 19.2798 17.5858C19.649 17.2107 20.1497 17 20.6719 17H27.5625C27.0404 17 26.5396 17.2107 26.1704 17.5858C25.8012 17.9609 25.5938 18.4696 25.5938 19V23C25.5938 23.5304 25.8012 24.0391 26.1704 24.4142C26.5396 24.7893 27.0404 25 27.5625 25Z" fill="#FFB300"/>
<path d="M51.1875 17C53.5372 17 55.7906 17.9482 57.452 19.636C59.1135 21.3238 60.0469 23.613 60.0469 26C60.0469 28.3869 59.1135 30.6761 57.452 32.3639C55.7906 34.0518 53.5372 35 51.1875 35H44.2969C44.2969 34.4695 44.0895 33.9608 43.7202 33.5857C43.351 33.2107 42.8503 33 42.3281 33C42.8503 33 43.351 32.7892 43.7202 32.4142C44.0895 32.0391 44.2969 31.5304 44.2969 31V27C44.2969 26.4695 44.0895 25.9608 43.7202 25.5857C43.351 25.2107 42.8503 25 42.3281 25C42.8503 25 43.351 24.7892 43.7202 24.4142C44.0895 24.0391 44.2969 23.5304 44.2969 23V19C44.2969 18.4695 44.0895 17.9608 43.7202 17.5857C43.351 17.2107 42.8503 17 42.3281 17H20.6719C20.1497 17 19.649 17.2107 19.2798 17.5857C18.9106 17.9608 18.7031 18.4695 18.7031 19V23C18.7031 23.5304 18.9106 24.0391 19.2798 24.4142C19.649 24.7892 20.1497 25 20.6719 25C20.1497 25 19.649 25.2107 19.2798 25.5857C18.9106 25.9608 18.7031 26.4695 18.7031 27V31C18.7031 31.5304 18.9106 32.0391 19.2798 32.4142C19.649 32.7892 20.1497 33 20.6719 33C20.1497 33 19.649 33.2107 19.2798 33.5857C18.9106 33.9608 18.7031 34.4695 18.7031 35H13.7813C12.2854 34.9983 10.8061 34.6817 9.43665 34.0703C8.06721 33.4589 6.83732 32.5659 5.82454 31.4475C4.81176 30.3292 4.03806 29.0098 3.55223 27.5726C3.06639 26.1354 2.87896 24.6115 3.00175 23.097C3.12455 21.5825 3.5549 20.1103 4.26567 18.7732C4.97645 17.4361 5.95223 16.2631 7.13148 15.3282C8.31073 14.3933 9.66788 13.7167 11.1173 13.3412C12.5668 12.9656 14.0772 12.8992 15.5531 13.1462C17.1672 9.76611 19.7817 6.98359 23.0303 5.18843C26.2789 3.39326 29.9989 2.67538 33.6692 3.13536C37.3395 3.59533 40.7762 5.21011 43.498 7.75349C46.2197 10.2969 48.0901 13.6415 48.8472 17.3187C49.6096 17.1061 50.3968 16.9989 51.1875 17Z" fill="#00D0CE"/>
<path d="M31.5 3.00001C32.8252 2.99893 34.1463 3.14861 35.4387 3.44626C32.85 4.04735 30.427 5.2309 28.3483 6.90967C26.2697 8.58845 24.5883 10.7197 23.4281 13.1463C20.6948 12.6866 17.8919 13.3085 15.5962 14.8842C13.3005 16.4599 11.6865 18.8694 11.0863 21.6171C10.4861 24.3648 10.9452 27.2417 12.3694 29.656C13.7935 32.0703 16.0743 33.8382 18.7425 34.5963C18.7163 34.7292 18.7031 34.8644 18.7031 35H13.7813C12.2854 34.9983 10.8061 34.6818 9.43665 34.0704C8.06721 33.459 6.83732 32.5659 5.82454 31.4476C4.81176 30.3293 4.03806 29.0099 3.55223 27.5727C3.06639 26.1354 2.87896 24.6115 3.00175 23.097C3.12455 21.5826 3.5549 20.1104 4.26567 18.7733C4.97645 17.4362 5.95223 16.2632 7.13148 15.3282C8.31073 14.3933 9.66788 13.7168 11.1173 13.3412C12.5668 12.9657 14.0772 12.8993 15.5531 13.1463C17.005 10.1044 19.2709 7.53933 22.0912 5.7449C24.9115 3.95048 28.1722 2.9992 31.5 3.00001Z" fill="#00A5AB"/>
<path d="M47.25 25C47.7721 25 48.2729 25.2107 48.6421 25.5858C49.0113 25.9609 49.2188 26.4696 49.2188 27V31C49.2188 31.5304 49.0113 32.0391 48.6421 32.4142C48.2729 32.7893 47.7721 33 47.25 33C47.7628 32.9998 48.2554 33.203 48.6229 33.5663C48.9904 33.9296 49.2037 34.4243 49.2175 34.945C48.891 34.9817 48.5628 35 48.2344 35H44.2969C44.2969 34.4696 44.0895 33.9609 43.7202 33.5858C43.351 33.2107 42.8503 33 42.3281 33C42.8503 33 43.351 32.7893 43.7202 32.4142C44.0895 32.0391 44.2969 31.5304 44.2969 31V27C44.2969 26.4696 44.0895 25.9609 43.7202 25.5858C43.351 25.2107 42.8503 25 42.3281 25C42.8503 25 43.351 24.7893 43.7202 24.4142C44.0895 24.0391 44.2969 23.5304 44.2969 23V19C44.2969 18.4696 44.0895 17.9609 43.7202 17.5858C43.351 17.2107 42.8503 17 42.3281 17C42.3281 17 46.9928 17.0687 47.5662 17.025C48.0277 17.1013 48.4473 17.3419 48.7501 17.7037C49.0528 18.0656 49.219 18.5251 49.2188 19V23C49.2188 23.5304 49.0113 24.0391 48.6421 24.4142C48.2729 24.7893 47.7721 25 47.25 25Z" fill="#00A5AB"/>
<path d="M21.6562 20H33.4688V22H21.6562V20Z" fill="#00074E"/>
<path d="M35.4375 20H37.4062V22H35.4375V20Z" fill="#00074E"/>
<path d="M39.375 20H41.3438V22H39.375V20Z" fill="#00074E"/>
<path d="M21.6562 28H33.4688V30H21.6562V28Z" fill="#00074E"/>
<path d="M35.4375 28H37.4062V30H35.4375V28Z" fill="#00074E"/>
<path d="M39.375 28H41.3438V30H39.375V28Z" fill="#00074E"/>
<path d="M21.6562 36H33.4688V38H21.6562V36Z" fill="#00074E"/>
<path d="M35.4375 36H37.4062V38H35.4375V36Z" fill="#00074E"/>
<path d="M39.375 36H41.3438V38H39.375V36Z" fill="#00074E"/>
<path d="M57.0937 43C56.2211 43.0011 55.3734 43.2962 54.6834 43.8391C53.9935 44.3819 53.5002 45.1419 53.2809 46H42.3281V42C43.1111 41.9991 43.8617 41.6827 44.4153 41.1203C44.9689 40.5579 45.2803 39.7953 45.2812 39V36H51.1875C52.5475 35.999 53.8924 35.7117 55.1377 35.1563C56.3829 34.6009 57.5013 33.7894 58.4224 32.773C59.3435 31.7566 60.0473 30.5574 60.4894 29.2509C60.9315 27.9443 61.1023 26.559 60.9911 25.182C60.8799 23.8051 60.489 22.4666 59.8431 21.2508C59.1972 20.035 58.3104 18.9683 57.2385 18.1181C56.1666 17.2678 54.9329 16.6525 53.6152 16.3107C52.2975 15.969 50.9244 15.9084 49.5825 16.1326C48.6195 12.4423 46.5848 9.13223 43.7434 6.6336C40.9019 4.13497 37.3856 2.56366 33.6525 2.1244C29.9193 1.68513 26.1425 2.39828 22.8141 4.17093C19.4857 5.94357 16.76 8.69352 14.9922 12.0625C14.5898 12.0209 14.1857 12 13.7812 12C10.6484 12 7.64382 13.2643 5.42855 15.5147C3.21328 17.7651 1.96875 20.8174 1.96875 24C1.96875 27.1826 3.21328 30.2348 5.42855 32.4853C7.64382 34.7357 10.6484 36 13.7812 36H17.7187V39C17.7197 39.7953 18.0311 40.5579 18.5847 41.1203C19.1383 41.6827 19.8889 41.9991 20.6719 42V46H9.7191C9.47951 45.0573 8.90972 44.2358 8.11653 43.6894C7.32334 43.143 6.36122 42.9092 5.41049 43.0319C4.45977 43.1545 3.58573 43.6252 2.95219 44.3558C2.31866 45.0863 1.96914 46.0264 1.96914 47C1.96914 47.9736 2.31866 48.9137 2.95219 49.6442C3.58573 50.3747 4.45977 50.8454 5.41049 50.9681C6.36122 51.0908 7.32334 50.857 8.11653 50.3106C8.90972 49.7642 9.47951 48.9426 9.7191 48H21.6562C21.9173 48 22.1677 47.8946 22.3523 47.7071C22.5369 47.5196 22.6406 47.2652 22.6406 47V42H24.6094V50H16.7344C16.4733 50 16.2229 50.1053 16.0383 50.2929C15.8537 50.4804 15.75 50.7348 15.75 51V54.1266C14.8221 54.37 14.0134 54.9488 13.4755 55.7546C12.9376 56.5604 12.7075 57.5378 12.8283 58.5036C12.949 59.4694 13.4124 60.3573 14.1315 61.0009C14.8505 61.6445 15.776 61.9996 16.7344 61.9996C17.6927 61.9996 18.6182 61.6445 19.3373 61.0009C20.0564 60.3573 20.5197 59.4694 20.6405 58.5036C20.7612 57.5378 20.5311 56.5604 19.9932 55.7546C19.4554 54.9488 18.6467 54.37 17.7187 54.1266V52H25.5937C25.8548 52 26.1052 51.8946 26.2898 51.7071C26.4744 51.5196 26.5781 51.2652 26.5781 51V42H30.5156V52.1266C29.5877 52.37 28.779 52.9488 28.2411 53.7546C27.7032 54.5604 27.4731 55.5378 27.5939 56.5036C27.7146 57.4694 28.178 58.3573 28.8971 59.0009C29.6162 59.6445 30.5416 59.9996 31.5 59.9996C32.4584 59.9996 33.3838 59.6445 34.1029 59.0009C34.822 58.3573 35.2854 57.4694 35.4061 56.5036C35.5269 55.5378 35.2967 54.5604 34.7589 53.7546C34.221 52.9488 33.4123 52.37 32.4844 52.1266V42H36.4219V51C36.4219 51.2652 36.5256 51.5196 36.7102 51.7071C36.8948 51.8946 37.1452 52 37.4062 52H45.2812V54.1266C44.3533 54.37 43.5446 54.9488 43.0068 55.7546C42.4689 56.5604 42.2387 57.5378 42.3595 58.5036C42.4803 59.4694 42.9436 60.3573 43.6627 61.0009C44.3818 61.6445 45.3073 61.9996 46.2656 61.9996C47.224 61.9996 48.1494 61.6445 48.8685 61.0009C49.5876 60.3573 50.051 59.4694 50.1717 58.5036C50.2925 57.5378 50.0624 56.5604 49.5245 55.7546C48.9866 54.9488 48.1779 54.37 47.25 54.1266V51C47.25 50.7348 47.1463 50.4804 46.9617 50.2929C46.7771 50.1053 46.5267 50 46.2656 50H38.3906V42H40.3594V47C40.3594 47.2652 40.4631 47.5196 40.6477 47.7071C40.8323 47.8946 41.0827 48 41.3437 48H53.2809C53.465 48.7243 53.8454 49.3817 54.3788 49.8975C54.9123 50.4132 55.5774 50.7667 56.2987 50.9177C57.02 51.0687 57.7685 51.0111 58.4592 50.7516C59.1499 50.4921 59.7551 50.041 60.2061 49.4496C60.6571 48.8582 60.9358 48.1502 61.0105 47.4059C61.0853 46.6617 60.953 45.911 60.6289 45.2393C60.3047 44.5675 59.8016 44.0016 59.1767 43.6058C58.5518 43.2099 57.8302 43.0001 57.0937 43ZM5.90625 49C5.51687 49 5.13623 48.8827 4.81247 48.6629C4.48871 48.4432 4.23637 48.1308 4.08736 47.7654C3.93835 47.3999 3.89936 46.9978 3.97533 46.6098C4.05129 46.2218 4.2388 45.8655 4.51413 45.5858C4.78947 45.3061 5.14027 45.1156 5.52217 45.0384C5.90407 44.9612 6.29992 45.0009 6.65966 45.1522C7.0194 45.3036 7.32688 45.5599 7.54321 45.8888C7.75953 46.2177 7.875 46.6044 7.875 47C7.87438 47.5302 7.66676 48.0386 7.29768 48.4135C6.9286 48.7884 6.42821 48.9994 5.90625 49ZM18.7031 58C18.7031 58.3955 18.5877 58.7822 18.3713 59.1111C18.155 59.44 17.8475 59.6964 17.4878 59.8477C17.128 59.9991 16.7322 60.0387 16.3503 59.9616C15.9684 59.8844 15.6176 59.6939 15.3423 59.4142C15.0669 59.1345 14.8794 58.7781 14.8035 58.3902C14.7275 58.0022 14.7665 57.6001 14.9155 57.2346C15.0645 56.8692 15.3168 56.5568 15.6406 56.337C15.9644 56.1173 16.345 56 16.7344 56C17.2563 56.0006 17.7567 56.2115 18.1258 56.5865C18.4949 56.9614 18.7025 57.4697 18.7031 58ZM33.4687 56C33.4687 56.3955 33.3533 56.7822 33.137 57.1111C32.9206 57.44 32.6131 57.6964 32.2534 57.8477C31.8937 57.9991 31.4978 58.0387 31.1159 57.9616C30.734 57.8844 30.3832 57.6939 30.1079 57.4142C29.8325 57.1345 29.645 56.7781 29.5691 56.3902C29.4931 56.0022 29.5321 55.6001 29.6811 55.2346C29.8301 54.8692 30.0825 54.5568 30.4062 54.337C30.73 54.1173 31.1106 54 31.5 54C32.022 54.0006 32.5224 54.2115 32.8914 54.5865C33.2605 54.9614 33.4681 55.4697 33.4687 56ZM48.2344 58C48.2344 58.3955 48.1189 58.7822 47.9026 59.1111C47.6863 59.44 47.3788 59.6964 47.019 59.8477C46.6593 59.9991 46.2634 60.0387 45.8815 59.9616C45.4996 59.8844 45.1488 59.6939 44.8735 59.4142C44.5982 59.1345 44.4107 58.7781 44.3347 58.3902C44.2587 58.0022 44.2977 57.6001 44.4467 57.2346C44.5957 56.8692 44.8481 56.5568 45.1718 56.337C45.4956 56.1173 45.8762 56 46.2656 56C46.7876 56.0006 47.288 56.2115 47.6571 56.5865C48.0261 56.9614 48.2338 57.4697 48.2344 58ZM19.6875 23V19C19.6878 18.7349 19.7916 18.4807 19.9761 18.2932C20.1607 18.1057 20.4109 18.0003 20.6719 18H42.3281C42.5891 18.0003 42.8393 18.1057 43.0239 18.2932C43.2084 18.4807 43.3122 18.7349 43.3125 19V23C43.3122 23.2651 43.2084 23.5193 43.0239 23.7068C42.8393 23.8942 42.5891 23.9997 42.3281 24H20.6719C20.4109 23.9997 20.1607 23.8942 19.9761 23.7068C19.7916 23.5193 19.6878 23.2651 19.6875 23ZM19.6875 31V27C19.6878 26.7349 19.7916 26.4807 19.9761 26.2932C20.1607 26.1057 20.4109 26.0003 20.6719 26H42.3281C42.5891 26.0003 42.8393 26.1057 43.0239 26.2932C43.2084 26.4807 43.3122 26.7349 43.3125 27V31C43.3122 31.2651 43.2084 31.5193 43.0239 31.7068C42.8393 31.8942 42.5891 31.9997 42.3281 32H20.6719C20.4109 31.9997 20.1607 31.8942 19.9761 31.7068C19.7916 31.5193 19.6878 31.2651 19.6875 31ZM3.9375 24C3.94046 21.3487 4.97852 18.807 6.82394 16.9322C8.66936 15.0575 11.1714 14.003 13.7812 14C14.3212 13.9999 14.8603 14.0443 15.3932 14.133C15.6026 14.1682 15.8176 14.1337 16.0061 14.0346C16.1946 13.9354 16.3465 13.777 16.4391 13.583C17.9634 10.3906 20.4325 7.76261 23.5005 6.06705C26.5685 4.3715 30.0818 3.69334 33.5482 4.12759C37.0146 4.56183 40.2605 6.08671 42.8311 8.48864C45.4018 10.8906 47.1685 14.0492 47.8837 17.5221C47.9111 17.656 47.9652 17.7827 48.0427 17.8945C48.1201 18.0062 48.2194 18.1007 48.3342 18.172C48.449 18.2432 48.577 18.2899 48.7103 18.3089C48.8436 18.328 48.9793 18.3191 49.109 18.2827C50.1918 17.9823 51.3252 17.9204 52.4335 18.1013C53.5417 18.2822 54.599 18.7017 55.5347 19.3316C56.4703 19.9615 57.2625 20.7874 57.8583 21.7537C58.454 22.7201 58.8396 23.8047 58.989 24.9348C59.1385 26.0649 59.0484 27.2144 58.7248 28.3063C58.4012 29.3981 57.8516 30.4071 57.1128 31.2655C56.3741 32.124 55.4632 32.812 54.4412 33.2837C53.4193 33.7553 52.3099 33.9995 51.1875 34H45.1119C44.983 33.6311 44.7842 33.2914 44.5268 33C45.013 32.451 45.2817 31.7385 45.2812 31V27C45.2817 26.2615 45.013 25.549 44.5268 25C45.013 24.451 45.2817 23.7385 45.2812 23V19C45.2803 18.2046 44.9689 17.4421 44.4153 16.8797C43.8617 16.3173 43.1111 16.0009 42.3281 16H20.6719C19.8889 16.0009 19.1383 16.3173 18.5847 16.8797C18.0311 17.4421 17.7197 18.2046 17.7187 19V23C17.7182 23.7385 17.987 24.451 18.4731 25C17.987 25.549 17.7182 26.2615 17.7187 27V31C17.7182 31.7385 17.987 32.451 18.4731 33C18.2158 33.2914 18.017 33.6311 17.8881 34H13.7812C11.1714 33.997 8.66936 32.9424 6.82394 31.0677C4.97852 29.193 3.94046 26.6512 3.9375 24ZM19.6875 39V35C19.6878 34.7349 19.7916 34.4807 19.9761 34.2932C20.1607 34.1057 20.4109 34.0003 20.6719 34H42.3281C42.5891 34.0003 42.8393 34.1057 43.0239 34.2932C43.2084 34.4807 43.3122 34.7349 43.3125 35V39C43.3122 39.2651 43.2084 39.5193 43.0239 39.7068C42.8393 39.8942 42.5891 39.9997 42.3281 40H20.6719C20.4109 39.9997 20.1607 39.8942 19.9761 39.7068C19.7916 39.5193 19.6878 39.2651 19.6875 39ZM57.0937 49C56.7044 49 56.3237 48.8827 56 48.6629C55.6762 48.4432 55.4239 48.1308 55.2749 47.7654C55.1258 47.3999 55.0869 46.9978 55.1628 46.6098C55.2388 46.2218 55.4263 45.8655 55.7016 45.5858C55.977 45.3061 56.3278 45.1156 56.7097 45.0384C57.0916 44.9612 57.4874 45.0009 57.8472 45.1522C58.2069 45.3036 58.5144 45.5599 58.7307 45.8888C58.947 46.2177 59.0625 46.6044 59.0625 47C59.0619 47.5302 58.8543 48.0386 58.4852 48.4135C58.1161 48.7884 57.6157 48.9994 57.0937 49Z" fill="#00074E"/>
</svg>
