<svg width="65" height="64" viewBox="0 0 65 64" fill="none" xmlns="http://www.w3.org/2000/svg">
<path d="M61.1739 13.7019L58.4491 13.0328C58.1873 11.9273 57.7509 10.8898 57.1691 9.94915L58.6236 7.5443C58.8079 7.234 58.7594 6.83642 58.5073 6.5843L57.1303 5.20733C56.8782 4.95521 56.4806 4.90673 56.1703 5.09097L53.7655 6.54551C52.8248 5.9637 51.7873 5.52733 50.6818 5.26551L50.0127 2.54067C49.9158 2.18188 49.6055 1.93945 49.2467 1.93945H47.2976C46.9388 1.93945 46.6188 2.18188 46.5412 2.53097L45.8721 5.25582C44.7667 5.51764 43.7291 5.954 42.7885 6.53582L40.3836 5.08127C40.0733 4.89703 39.6758 4.94551 39.4236 5.19764L38.0273 6.5843C37.7752 6.83642 37.7267 7.234 37.9109 7.5443L39.3655 9.94915C38.7836 10.8898 38.3473 11.9273 38.0855 13.0328L35.3606 13.7019C35.0115 13.7892 34.7691 14.0995 34.7691 14.4582V16.4073C34.7691 16.7661 35.0115 17.0861 35.3606 17.1637L38.0855 17.8328C38.3473 18.9382 38.7836 19.9758 39.3655 20.9067L37.9109 23.3116C37.7267 23.6219 37.7752 24.0195 38.0273 24.2716L39.4042 25.6485C39.6564 25.9007 40.0539 25.9492 40.3642 25.7649L42.7691 24.3104C43.7097 24.8922 44.7473 25.3285 45.8527 25.5904L46.5218 28.3152C46.6091 28.6643 46.9194 28.9067 47.2782 28.9067H49.2273C49.5861 28.9067 49.9061 28.6643 49.9836 28.3152L50.6527 25.5904C51.7582 25.3285 52.7958 24.8922 53.7364 24.3104L56.1412 25.7649C56.4515 25.9492 56.8491 25.9007 57.1012 25.6485L58.4782 24.2716C58.7303 24.0195 58.7788 23.6219 58.5945 23.3116L57.14 20.9067C57.7218 19.9661 58.1582 18.9285 58.42 17.8328L61.1448 17.1637C61.4939 17.0764 61.7364 16.7661 61.7364 16.4073V14.4582C61.7655 14.0995 61.523 13.7892 61.1739 13.7019ZM48.2673 21.091C45.1448 21.091 42.6139 18.5601 42.6139 15.4376C42.6139 12.3152 45.1448 9.7843 48.2673 9.7843C51.3897 9.7843 53.9206 12.3152 53.9206 15.4376C53.9206 18.5601 51.3897 21.091 48.2673 21.091Z" fill="#FF4823"/>
<path d="M50.3133 19.2195C50.3133 18.1431 49.4406 17.2704 48.3642 17.2704H4.36909C3.29273 17.2704 2.42 18.1431 2.42 19.2195V45.7601H50.3133V19.2195Z" fill="#009AFF"/>
<path opacity="0.35" d="M48.3642 17.2704H21.717C21.717 19.4134 23.4527 21.1492 25.5958 21.1492H46.4345V26.3468C46.4345 28.4898 48.1703 30.2255 50.3133 30.2255V19.2195C50.3133 18.1431 49.4406 17.2704 48.3642 17.2704Z" fill="white"/>
<path d="M2.42 45.76V52.1697C2.42 53.2461 3.29273 54.1188 4.36909 54.1188H48.3642C49.4406 54.1188 50.3133 53.2461 50.3133 52.1697V45.76H2.42Z" fill="#E6E9EE"/>
<path opacity="0.1" d="M39.2588 48.3589C22.0467 48.3589 8.10242 34.4049 8.10242 17.2025H4.36909C3.29273 17.2025 2.42 18.0752 2.42 19.1516V52.0922C2.42 53.1686 3.29273 54.0413 4.36909 54.0413H48.3545C49.4309 54.0413 50.3036 53.1686 50.3036 52.0922V48.3589H39.2588Z" fill="black"/>
<path d="M19.2345 54.1189H33.4988V58.1625H19.2345V54.1189Z" fill="#AAB2BD"/>
<path d="M37.5036 58.1625H15.2394C14.163 58.1625 13.2903 59.0352 13.2903 60.1116V62.0607H39.4527V60.1116C39.4527 59.0352 38.58 58.1625 37.5036 58.1625Z" fill="#E6E9EE"/>
<path d="M60.5339 28.5867H32.0539C30.9776 28.5867 30.1048 29.4594 30.1048 30.5358V35.0158H62.4927V30.5358C62.483 29.4594 61.6103 28.5867 60.5339 28.5867Z" fill="#FEC200"/>
<path opacity="0.1" d="M36.6212 32.8339C34.2745 32.8339 32.3739 30.9333 32.3739 28.5867H32.1315C31.0551 28.5867 30.1824 29.4594 30.1824 30.5358V35.0158H62.5703V32.8242H36.6212V32.8339Z" fill="black"/>
<path d="M10.6042 33.668C10.3521 33.668 10.1097 33.571 9.91575 33.3867L6.61878 30.0898C6.43454 29.9055 6.33757 29.6631 6.33757 29.4013C6.33757 29.1395 6.44424 28.8971 6.61878 28.7128L9.91575 25.4158C10.2939 25.0377 10.9048 25.0377 11.283 25.4158C11.6612 25.794 11.6612 26.4049 11.283 26.7831L8.66484 29.4013L11.283 32.0195C11.6612 32.3977 11.6612 33.0086 11.283 33.3867C11.0988 33.5807 10.8467 33.668 10.6042 33.668Z" fill="white"/>
<path d="M20.5727 33.668C20.3206 33.668 20.0782 33.571 19.8842 33.3867C19.5061 33.0086 19.5061 32.3977 19.8842 32.0195L22.5024 29.4013L19.8842 26.7831C19.5061 26.4049 19.5061 25.794 19.8842 25.4158C20.2624 25.0377 20.8733 25.0377 21.2515 25.4158L24.5485 28.7128C24.7327 28.8971 24.8297 29.1395 24.8297 29.4013C24.8297 29.6631 24.723 29.9055 24.5485 30.0898L21.2515 33.3867C21.0673 33.5807 20.8248 33.668 20.5727 33.668Z" fill="white"/>
<path d="M12.66 36.6546C12.5242 36.6546 12.3788 36.6255 12.2527 36.5673C11.7679 36.3443 11.5545 35.7625 11.7873 35.2776L17.6442 22.72C17.8673 22.2352 18.4491 22.0219 18.9339 22.2546C19.4188 22.4776 19.6321 23.0594 19.3994 23.5443L13.5424 36.1019C13.3776 36.4413 13.0285 36.6546 12.66 36.6546Z" fill="white"/>
<path d="M30.1048 35.0255V60.1116C30.1048 61.1879 30.9776 62.0607 32.0539 62.0607H60.5436C61.62 62.0607 62.4927 61.1879 62.4927 60.1116V35.0255H30.1048Z" fill="#5D5B68"/>
<path d="M57.6152 38.9237H34.9727C34.4394 38.9237 34.003 39.3601 34.003 39.8934V48.8922C34.003 49.4255 34.4394 49.8619 34.9727 49.8619H57.6152C58.1485 49.8619 58.5849 49.4255 58.5849 48.8922V39.8934C58.5849 39.3504 58.1582 38.9237 57.6152 38.9237Z" fill="#FF4823"/>
<path opacity="0.1" d="M58.5848 48.8922V48.805L48.6745 44.3928L58.5848 39.9807V39.8838C58.5848 39.3504 58.1485 38.9141 57.6152 38.9141H56.1994L46.2891 43.3262L36.3788 38.9141H34.963C34.4297 38.9141 33.9933 39.3504 33.9933 39.8838V39.9807L43.9036 44.3928L33.9933 48.805V48.8922C33.9933 49.4256 34.4297 49.8619 34.963 49.8619H36.3788L46.2891 45.4498L56.1994 49.8619H57.6152C58.1582 49.8619 58.5848 49.4256 58.5848 48.8922Z" fill="black"/>
<path d="M34.2648 32.7856C34.8058 32.7856 35.2442 32.3471 35.2442 31.8062C35.2442 31.2653 34.8058 30.8268 34.2648 30.8268C33.7239 30.8268 33.2855 31.2653 33.2855 31.8062C33.2855 32.3471 33.7239 32.7856 34.2648 32.7856Z" fill="white"/>
<path d="M37.7751 32.7856C38.3161 32.7856 38.7545 32.3471 38.7545 31.8062C38.7545 31.2653 38.3161 30.8268 37.7751 30.8268C37.2342 30.8268 36.7958 31.2653 36.7958 31.8062C36.7958 32.3471 37.2342 32.7856 37.7751 32.7856Z" fill="white"/>
<path d="M41.2855 32.7856C41.8264 32.7856 42.2648 32.3471 42.2648 31.8062C42.2648 31.2653 41.8264 30.8268 41.2855 30.8268C40.7446 30.8268 40.3061 31.2653 40.3061 31.8062C40.3061 32.3471 40.7446 32.7856 41.2855 32.7856Z" fill="white"/>
<path d="M43.3412 54.9819H33.9933C33.46 54.9819 33.0236 54.5455 33.0236 54.0122C33.0236 53.4788 33.46 53.0425 33.9933 53.0425H43.3412C43.8745 53.0425 44.3109 53.4788 44.3109 54.0122C44.3109 54.5455 43.8745 54.9819 43.3412 54.9819Z" fill="white"/>
<path d="M38.4636 59.2873H33.9933C33.46 59.2873 33.0236 58.8509 33.0236 58.3176C33.0236 57.7843 33.46 57.3479 33.9933 57.3479H38.4636C38.997 57.3479 39.4333 57.7843 39.4333 58.3176C39.4333 58.8509 38.997 59.2873 38.4636 59.2873Z" fill="white"/>
<path d="M58.5849 55.137H49.237C48.7036 55.137 48.2673 54.7007 48.2673 54.1673C48.2673 53.634 48.7036 53.1976 49.237 53.1976H58.5849C59.1182 53.1976 59.5545 53.634 59.5545 54.1673C59.5545 54.7007 59.1279 55.137 58.5849 55.137Z" fill="white"/>
<path d="M53.7073 59.2873H49.237C48.7036 59.2873 48.2673 58.8509 48.2673 58.3176C48.2673 57.7843 48.7036 57.3479 49.237 57.3479H53.7073C54.2406 57.3479 54.677 57.7843 54.677 58.3176C54.677 58.8509 54.2503 59.2873 53.7073 59.2873Z" fill="white"/>
<path d="M26.3715 50.9189C26.9124 50.9189 27.3509 50.4804 27.3509 49.9395C27.3509 49.3986 26.9124 48.9601 26.3715 48.9601C25.8306 48.9601 25.3921 49.3986 25.3921 49.9395C25.3921 50.4804 25.8306 50.9189 26.3715 50.9189Z" fill="#009AFF"/>
<path opacity="0.1" d="M57.14 56.9698C45.0188 56.9698 35.1861 47.1371 35.1861 35.0159H30.0952V60.1019C30.0952 61.1783 30.9679 62.051 32.0442 62.051H60.5339C61.6103 62.051 62.483 61.1783 62.483 60.1019V56.9601H57.14V56.9698Z" fill="black"/>
</svg>
